<svg width="41" height="54" viewBox="0 0 41 54" fill="none" xmlns="http://www.w3.org/2000/svg">
<path fill-rule="evenodd" clip-rule="evenodd" d="M35.1718 31.027C34.7693 31.6289 34.2781 32.1935 33.6421 32.4969C33.0057 32.8 32.2011 32.7929 31.6605 32.3271C31.2263 33.6972 29.5212 34.4224 28.3072 33.7536C28.1654 34.8746 27.3079 35.8554 26.2596 36.095C25.2116 36.3349 24.046 35.817 23.4763 34.8588C23.1798 34.3598 22.5585 34.2278 21.9583 34.1004C21.2834 33.9569 20.635 33.8193 20.5041 33.1722C20.3717 33.8726 19.7575 34.4388 19.0815 34.4838C18.4055 34.5287 17.7287 34.0487 17.5137 33.3712C16.7785 33.7341 15.8663 33.3504 15.3378 32.7009C14.8089 32.051 14.578 31.1956 14.3758 30.3665C12.819 23.975 12.129 17.3613 12.1603 10.7626C12.0049 11.5639 10.9468 11.8476 10.2723 11.4437C9.59814 11.04 9.25937 10.2175 9.06132 9.42674C8.901 8.78737 8.11635 8.56674 7.50296 8.70589C7.21777 8.77072 6.9454 8.88617 6.67342 9.00139C6.36106 9.13388 6.04946 9.26596 5.71824 9.32116C4.51863 9.52133 3.30959 8.581 2.93197 7.36345C2.55474 6.14615 2.9082 4.76637 3.64004 3.74437C4.37188 2.72215 5.43909 2.01813 6.55308 1.50802C7.99035 0.849568 9.54495 0.478186 11.1112 0.418962C11.4919 0.404508 11.951 0.359943 12.1203 0C12.7794 0.321601 13.5082 0.407923 14.2344 0.494044C14.4328 0.517532 14.6312 0.541014 14.8282 0.569322C16.9716 0.877671 19.0325 1.80152 20.7304 3.2152C21.9436 4.22536 22.9565 5.4624 23.9701 6.69999C24.9166 7.8555 25.8635 9.0114 26.9737 9.98362C28.5487 11.3628 30.4209 12.3475 32.2826 13.3265C34.9062 14.7067 37.5084 16.0754 39.2256 18.5211C40.0812 19.7396 40.6595 21.1734 40.8983 22.6688C41.1224 24.0722 41.0149 25.6248 40.183 26.7453C39.3512 27.8659 37.6405 28.3106 36.6114 27.3904C36.3907 28.694 35.8954 29.9451 35.1718 31.027ZM11.3376 3.01987C11.8838 2.44612 12.2554 1.69031 12.3852 0.888917C11.1637 0.595624 9.88974 0.892732 8.68107 1.23982C7.33169 1.62747 5.96383 2.09782 4.87587 3.02468C3.78792 3.95133 3.02364 5.43085 3.2613 6.88448C3.35674 7.46764 3.75435 8.11464 4.31228 8.04922L4.03199 8.4218C4.08028 8.53845 4.20214 8.61636 4.32285 8.6079C4.83929 8.53243 5.29876 8.12472 5.4572 7.60097C5.48021 7.52668 5.49719 7.44939 5.51454 7.37207C5.5568 7.18358 5.59942 6.99549 5.71674 6.85014C5.88197 6.64557 6.2826 6.65078 6.3207 6.91662C6.3456 7.08865 6.21055 7.2446 6.0838 7.39035C5.94082 7.55519 5.80916 7.70692 5.93327 7.85407C6.48819 7.46646 7.02991 7.05751 7.55691 6.62853C7.88435 6.36151 8.24197 5.9329 8.0492 5.54669C7.91604 5.27989 8.09635 4.9013 8.3789 4.85491C8.66146 4.80855 8.94212 5.11148 8.89232 5.40816C9.19562 5.18918 9.50647 4.9631 9.71584 4.64414C9.9252 4.32533 10.0139 3.8883 9.8407 3.54643C9.70376 3.27601 9.85428 2.89219 10.1327 2.80345C10.4107 2.71473 10.7381 2.94599 10.7661 3.25112C10.9705 3.11321 10.8913 2.77937 10.7653 2.56055C10.6397 2.34154 10.4865 2.07012 10.6129 1.85171C10.7981 1.53151 11.2636 1.76518 11.5251 2.01953C11.5899 1.74912 11.5481 1.45202 11.4111 1.21353C11.4047 0.962992 11.7729 0.860814 11.9412 1.03787C12.109 1.21493 12.0883 1.51706 11.9762 1.73788C11.9027 1.88302 11.7986 2.00588 11.6944 2.12914C11.6397 2.19378 11.5854 2.25842 11.5349 2.32627C11.3885 2.52361 11.275 2.77816 11.3376 3.01987ZM31.5005 28.8994C32.1143 28.9347 32.2331 29.8445 32.1015 30.4779C31.9695 31.1113 31.8612 31.953 32.4112 32.2434C32.7379 32.4164 33.134 32.2713 33.4512 32.0801C34.947 31.1798 35.7388 29.3808 36.1832 27.626C36.2352 27.4213 36.2624 27.1547 36.0915 27.0429C34.2913 25.8625 33.0193 23.824 32.7035 21.6132C33.14 21.7019 33.2988 22.2564 33.4203 22.7075C33.8696 24.3723 34.9696 25.8305 36.4073 26.6662C36.6008 23.3298 35.5102 19.9301 33.4362 17.4027C34.1107 17.5384 34.5796 18.176 34.9345 18.7957C36.3103 21.1952 36.9656 24.0469 36.7838 26.8445C37.2783 27.5977 38.384 27.6815 39.1204 27.1952C39.8567 26.7092 40.2626 25.8079 40.4328 24.9093C40.8809 22.5393 39.9069 20.0612 38.3753 18.2635C36.8437 16.4658 34.8108 15.2396 32.7756 14.1289C32.5014 13.9794 32.2263 13.831 31.951 13.6826C30.1813 12.7289 28.4046 11.7711 26.8677 10.4498C25.7096 9.45408 24.714 8.27446 23.7185 7.09445C22.7607 5.95983 21.8029 4.82478 20.7002 3.85318C18.7526 2.13697 16.3352 0.961185 13.8036 0.766657C13.3796 0.734135 12.8895 0.758228 12.6232 1.10793C12.3569 1.45744 12.6715 2.15223 13.0616 1.97396L11.5379 3.1901C11.9008 3.25654 12.1317 3.73935 11.9664 4.08686C11.8016 4.43414 11.2965 4.52789 11.029 4.2609C11.3368 4.18541 11.6024 3.93968 11.7137 3.62754C10.8883 3.8913 10.1659 4.49696 9.73658 5.2855C10.0776 5.22931 10.4379 5.49509 10.505 5.85223C10.2568 5.91205 9.98593 5.9484 9.71357 5.98472C8.89609 6.09415 8.06655 6.20513 7.80135 6.96196C8.16199 6.97079 8.5049 7.23257 8.62561 7.59089C7.85039 7.3902 6.99633 7.5578 6.34182 8.03937C6.71604 8.22792 7.14836 8.23851 7.57577 8.24914C8.09258 8.26204 8.60336 8.27487 8.99795 8.60145C9.35255 8.89518 9.50119 9.35289 9.65095 9.81342C9.71886 10.0214 9.78676 10.2299 9.87352 10.4243C10.1534 11.048 10.9894 11.5527 11.4209 11.0339C11.4915 10.9487 11.5428 10.8428 11.5933 10.7383C11.6748 10.57 11.7544 10.4046 11.9136 10.3323C12.3678 10.1257 12.6455 10.8687 12.6432 11.3905C12.6176 17.7747 13.3271 24.1617 14.7505 30.367C14.91 31.0633 15.0896 31.7807 15.5144 32.3395C15.9391 32.8983 16.6789 33.2559 17.313 32.9993C16.6166 31.9679 16.4363 30.5706 16.8468 29.3808C16.8388 30.4608 17.075 31.5418 17.5307 32.509L17.2798 29.5649C17.8909 30.0266 17.8683 30.9021 17.8453 31.7714C17.8223 32.6587 17.7993 33.5392 18.4511 33.9665C19.0925 34.3871 20.0801 33.7998 20.0657 33.0033C20.0586 32.6122 19.8609 32.2524 19.6662 31.8985C19.4304 31.4705 19.1996 31.0503 19.3169 30.5935L20.3536 32.2199L20.0876 29.4073C20.5905 30.0832 20.7972 30.9939 20.6399 31.8368C20.5192 32.4821 20.7753 33.189 21.2733 33.585C21.7712 33.9808 22.4865 34.0462 23.0414 33.7462C22.3974 32.5574 22.0719 31.1792 22.1111 29.8106L23.4692 33.7062C24.1618 32.8115 24.3945 31.543 24.0682 30.4405C24.9102 31.4739 24.6235 33.2875 23.5095 33.9771C23.7657 34.833 24.5028 35.5071 25.3421 35.6534C26.1823 35.7997 27.0854 35.411 27.589 34.6877C27.9141 34.22 28.0545 33.5215 27.6972 33.0811C26.4116 31.4965 25.8322 29.3003 26.1566 27.243C26.4833 29.1433 26.8379 31.1147 27.9134 32.6779L27.2717 29.9895C27.8338 30.297 27.9496 30.9939 28.0662 31.6986C28.1771 32.3668 28.2891 33.0421 28.7833 33.4006C29.6294 34.0149 30.754 33.131 31.2599 32.1883C30.0727 29.5767 29.0221 26.8961 28.1148 24.1628C29.0742 25.1755 29.4997 26.5592 29.9263 27.9472C30.3236 29.2386 30.7219 30.5339 31.5522 31.5375C31.7967 30.6813 31.7782 29.7442 31.5005 28.8994ZM6.55346 8.55029C6.02306 8.34934 5.39684 8.45855 4.95585 8.82911C5.4919 8.99253 6.09587 8.88716 6.55346 8.55029ZM10.3858 3.21759C10.2542 3.12688 10.0463 3.23767 10.0376 3.4035C10.0289 3.56912 10.224 3.70362 10.3643 3.62875C10.5046 3.55387 10.5175 3.30833 10.3858 3.21759ZM8.41927 5.66756C8.56375 5.62299 8.65052 5.43426 8.59431 5.28692C8.52301 5.22488 8.40456 5.28392 8.37287 5.37543C8.34043 5.4668 8.37023 5.56916 8.40984 5.6573L8.41927 5.66756ZM12.4089 2.26786C12.5093 2.23493 12.5602 2.09301 12.5063 1.99826C12.3878 1.94967 12.3486 2.16869 12.4059 2.28814L12.4089 2.26786ZM9.56871 18.7321C8.3359 18.3161 7.28831 17.325 6.76282 16.0772C6.65983 15.833 6.37238 15.7168 6.10529 15.6088C5.78803 15.4807 5.49907 15.3639 5.57905 15.0586C5.78276 14.2831 5.57301 13.4793 5.36742 12.6911C5.32592 12.5317 5.28442 12.3732 5.2467 12.2154C5.02149 11.2774 4.97698 10.141 5.65714 9.49201C5.3942 10.5504 5.43457 11.6906 5.77257 12.7252C5.79407 12.7911 5.81633 12.8584 5.83934 12.9262C6.07663 13.6355 6.34748 14.4441 5.88913 14.9861C5.951 15.2945 6.36898 15.3813 6.6221 15.2136C6.87485 15.0457 6.99784 14.7318 7.10535 14.4377C6.85449 16.1844 8.10993 18.0178 9.7611 18.3157C10.7581 18.4956 11.6514 19.2237 12.0675 20.1959C12.484 21.168 12.4112 22.3562 11.88 23.2638C12.5176 23.555 12.9178 24.2653 13.0265 24.9892C13.1351 25.7131 12.9944 26.4527 12.8043 27.1577C11.8148 30.83 9.42084 34.0583 6.27996 35.9568C5.72202 36.294 5.4206 36.9336 5.12145 37.5677C4.79477 38.2604 4.47148 38.9465 3.81961 39.2245C3.42351 39.3931 2.81541 39.2093 2.84295 38.7596C2.57247 38.9877 2.2669 39.2248 1.92135 39.2068C1.57542 39.1885 1.2544 38.7547 1.45396 38.4562C1.00278 38.6617 0.381465 38.8231 0.0985371 38.3989C-0.185146 37.9734 0.191346 37.3861 0.623283 37.1348C0.748903 37.0613 0.882819 36.9984 1.01636 36.9355C1.34229 36.7821 1.66785 36.629 1.87194 36.329C1.45622 36.2859 0.999386 36.2211 0.722116 35.8917C0.445224 35.562 0.563678 34.8904 0.980903 34.8671C2.38611 34.7894 3.75964 34.172 4.7861 33.1564C5.96119 31.9936 6.63041 30.4129 7.29322 28.8468C7.43921 28.5023 7.58444 28.1587 7.73496 27.8204C8.56979 25.9434 9.75922 24.027 11.6311 23.3928C11.7831 22.6507 11.9359 21.8941 11.8676 21.1381C11.7993 20.3822 11.4726 19.613 10.86 19.2147C10.5771 19.0312 10.2553 18.9374 9.93388 18.8439C9.81128 18.8082 9.68905 18.7726 9.56871 18.7321ZM6.49724 35.3125C9.58267 33.3229 11.8393 29.9564 12.5889 26.2254C12.6979 25.6824 12.7726 25.096 12.5583 24.5889C12.3448 24.0818 11.7378 23.7237 11.2742 23.9863C9.65472 24.9039 8.6856 26.7076 7.91829 28.47C7.82134 28.6926 7.72591 28.917 7.63009 29.1419C6.96729 30.6971 6.29429 32.2754 5.13504 33.4481C4.03388 34.5616 2.53248 35.2242 1.00731 35.2688C0.854531 35.3614 0.971847 35.632 1.1416 35.6819C1.23403 35.7095 1.33098 35.7033 1.42755 35.6971C1.5079 35.6918 1.58864 35.6865 1.66748 35.7005C2.14732 35.786 2.24993 36.545 1.9372 36.9377C1.62409 37.3303 1.1035 37.4416 0.624031 37.529C0.307529 37.5866 0.440319 38.1699 0.756066 38.2303C1.02919 38.283 1.28345 38.1181 1.52563 37.9613C1.56336 37.9368 1.60145 37.912 1.63842 37.8891C1.91456 37.7161 2.3084 37.6089 2.52569 37.8575C2.11601 38.0738 1.83383 38.5359 1.81572 39.0184C2.33292 38.4482 3.07796 38.1156 3.82602 38.1203L3.22546 38.904C4.06066 38.7203 4.75289 37.9573 4.89059 37.0694C5.0147 36.2667 5.76314 35.7851 6.42783 35.3574L6.49724 35.3125ZM8.54829 44.2956C7.96545 44.6402 7.11554 44.9938 6.73906 44.4115C6.56327 44.14 6.5991 43.7802 6.64248 43.4548L7.74288 35.1231C7.96809 37.5122 7.764 39.9456 7.14571 42.256C6.95634 42.962 6.74094 43.7687 7.11666 44.386C8.7965 43.3937 10.6669 42.7621 12.5813 42.5411C13.959 42.3822 15.3631 42.4314 16.7634 42.4807C19.017 42.5597 21.2589 42.6382 23.3609 41.8466C23.8713 41.6545 24.3851 41.3963 24.7186 40.946C25.052 40.4951 25.1501 39.8077 24.8155 39.3581L21.5916 35.0274C21.4392 34.8228 21.3114 34.4714 21.5309 34.3527L24.5028 38.0834C25.1294 38.8703 25.7952 39.9063 25.3912 40.8416C25.1818 41.3251 24.7299 41.6365 24.2787 41.8733C22.0089 43.0661 19.4501 42.9766 16.8694 42.8861C14.9093 42.8176 12.9363 42.7485 11.0671 43.2403C10.1881 43.4718 9.3386 43.8276 8.54829 44.2956ZM12.4433 53.1822L12.2863 53.5566C12.4704 53.9617 12.9891 54.0159 13.4146 53.9967C14.3144 53.9555 15.2111 53.839 16.0934 53.6474C16.8354 53.4866 17.6793 53.1658 17.9049 52.4031C18.0373 51.9547 17.9125 51.4796 17.7921 51.0212C17.7774 50.9651 17.7623 50.9087 17.7484 50.8526C17.4564 49.7057 17.399 48.4933 17.5812 47.3215C17.6556 46.8461 17.7683 46.3744 17.8815 45.9037C18.095 45.0136 18.3078 44.1263 18.2554 43.2164C17.1327 45.7717 16.8366 48.7211 17.4277 51.4669L17.4341 51.4982C17.4975 51.7917 17.5646 52.1019 17.4715 52.3855C17.3202 52.846 16.8204 53.0512 16.3729 53.1754C15.5336 53.4082 14.5128 53.5039 13.9194 52.8364C13.8783 52.7902 13.8394 52.7394 13.8206 52.6793C13.7387 52.4189 14.0428 52.2274 14.274 52.1019C15.1567 51.6212 15.6479 50.5626 15.749 49.5207C15.8497 48.4787 15.6211 47.4359 15.3906 46.4172L15.3891 46.4113C15.159 45.3945 14.924 44.3569 15.01 43.3156C15.0243 43.1384 14.747 43.0878 14.6403 43.2251C14.5332 43.3624 14.5543 43.5623 14.5811 43.738L15.4046 49.1153C15.5042 49.767 15.2544 50.4364 14.861 50.9497C14.4675 51.4629 13.942 51.8425 13.4124 52.1939C13.1419 52.3728 12.8514 52.5519 12.5319 52.5584C12.2128 52.5652 11.8661 52.33 11.8533 51.9937C12.7711 51.7281 13.3867 50.768 13.5727 49.7835C13.7587 48.7992 13.5957 47.7827 13.4324 46.7937L12.9733 44.0064C12.9069 43.6057 12.6941 43.0897 12.3158 43.1681C12.8062 44.8825 13.1091 46.6568 13.2155 48.4443C13.2585 49.163 13.2596 49.9282 12.9092 50.5461C12.5885 51.112 12.0234 51.466 11.4753 51.7827C11.2308 51.924 10.9754 52.0712 10.8193 52.3145C10.6631 52.5584 10.6457 52.9284 10.8589 53.1178C11.0713 53.3065 11.3613 53.2309 11.6526 53.1553C11.9397 53.0806 12.2275 53.0056 12.4433 53.1822ZM13.8673 53.2808C14.0431 53.3434 14.2167 53.4051 14.2536 53.583C13.8077 53.6437 13.3539 53.6425 12.9084 53.5789C12.7047 53.5492 12.6338 53.2452 12.7394 53.0598C12.845 52.8736 13.0502 52.7828 13.2415 52.7044C13.3505 52.8928 13.4682 53.0902 13.6538 53.1922C13.7187 53.2275 13.7934 53.2538 13.8673 53.2808ZM11.2602 52.4642C11.4119 52.3545 11.6379 52.3811 11.7631 52.5234L11.7993 52.4902C11.8559 52.5751 11.8517 52.6994 11.7899 52.7803C11.5571 52.7375 11.3078 52.8138 11.1324 52.9808C11.0516 52.8069 11.109 52.5742 11.2602 52.4642ZM8.11748 11.9447C7.66781 11.6338 7.22682 11.7816 6.86769 12.3298C6.80808 12.4209 6.82959 12.546 6.91598 12.609C7.00275 12.6721 7.1212 12.6492 7.1808 12.5578C7.43204 12.1746 7.65008 12.1015 7.90887 12.2804C7.99676 12.3412 8.11484 12.3153 8.17218 12.2226C8.22989 12.1298 8.20538 12.0056 8.11748 11.9447ZM6.50064 10.5546C6.33956 10.4785 6.4482 10.2145 6.59306 10.1081C6.87297 9.90255 7.21513 9.81965 7.54785 9.74096C7.94055 9.64821 8.4121 9.57814 8.69277 9.88225C8.02996 10.12 7.36225 10.341 6.68964 10.5452C6.62777 10.564 6.55949 10.5822 6.50064 10.5546ZM9.54533 14.6488C9.61964 14.5454 9.6864 14.4728 9.77015 14.4172C9.95462 14.2947 10.1825 14.3037 10.3526 14.4672C10.9773 15.0664 10.7785 15.9414 10.1089 16.6077C9.4876 17.2265 8.64674 17.4995 8.10352 17.0761C7.68742 16.7521 7.7493 16.308 8.13672 16.0467L8.14766 16.0394C8.25441 15.9709 8.59657 15.7895 8.59204 15.7921L8.62863 15.7712C8.73501 15.709 8.81235 15.6532 8.86856 15.5973C8.95495 15.5116 9.03907 15.4105 9.1247 15.2914C9.19034 15.2003 9.33822 14.9688 9.43404 14.8185C9.47817 14.7496 9.51099 14.6978 9.52043 14.6844L9.54533 14.6488ZM8.32986 16.7531C9.09339 17.3481 11.0252 15.655 10.0965 14.7642C9.98707 14.6593 9.86485 14.8552 9.68679 15.1405C9.54419 15.3691 9.36575 15.6552 9.1296 15.8897C8.97833 16.04 8.77086 16.149 8.59054 16.244C8.27667 16.409 8.04467 16.531 8.32986 16.7531Z" fill="#00160A"/>
</svg>
