<svg width="187" height="45" viewBox="0 0 187 25" fill="none" xmlns="http://www.w3.org/2000/svg">
<path d="M0.818182 24V0.727272H3.63636V11.0909H16.0455V0.727272H18.8636V24H16.0455V13.5909H3.63636V24H0.818182ZM25.4602 24H22.5057L31.0511 0.727272H33.9602L42.5057 24H39.5511L32.5966 4.40909H32.4148L25.4602 24ZM26.5511 14.9091H38.4602V17.4091H26.5511V14.9091ZM45.358 24V21.9545L57.9034 3.22727H45.2216V0.727272H61.267V2.77273L48.7216 21.5H61.4034V24H45.358ZM64.1307 0.727272H67.358L73.8125 11.5909H74.0852L80.5398 0.727272H83.767L75.358 14.4091V24H72.5398V14.4091L64.1307 0.727272ZM103.594 24H96.4119V0.727272H103.912C106.17 0.727272 108.101 1.19318 109.707 2.125C111.313 3.04924 112.545 4.37879 113.401 6.11364C114.257 7.84091 114.685 9.90909 114.685 12.3182C114.685 14.7424 114.253 16.8295 113.389 18.5795C112.526 20.322 111.268 21.6629 109.616 22.6023C107.965 23.5341 105.957 24 103.594 24ZM99.2301 21.5H103.412C105.336 21.5 106.931 21.1288 108.196 20.3864C109.461 19.6439 110.404 18.5871 111.026 17.2159C111.647 15.8447 111.957 14.2121 111.957 12.3182C111.957 10.4394 111.651 8.82197 111.037 7.46591C110.423 6.10227 109.507 5.05682 108.287 4.32954C107.067 3.5947 105.548 3.22727 103.73 3.22727H99.2301V21.5ZM119.273 24H116.318L124.864 0.727272H127.773L136.318 24H133.364L126.409 4.40909H126.227L119.273 24ZM120.364 14.9091H132.273V17.4091H120.364V14.9091ZM142.761 0.727272V24H139.943V0.727272H142.761ZM161.139 6.54545C161.003 5.39394 160.45 4.5 159.48 3.86364C158.51 3.22727 157.321 2.90909 155.912 2.90909C154.882 2.90909 153.98 3.07576 153.207 3.40909C152.442 3.74242 151.844 4.20076 151.412 4.78409C150.988 5.36742 150.776 6.0303 150.776 6.77273C150.776 7.39394 150.923 7.92803 151.219 8.375C151.522 8.81439 151.908 9.18182 152.378 9.47727C152.848 9.76515 153.34 10.0038 153.855 10.1932C154.37 10.375 154.844 10.5227 155.276 10.6364L157.639 11.2727C158.245 11.4318 158.92 11.6515 159.662 11.9318C160.412 12.2121 161.128 12.5947 161.81 13.0795C162.499 13.5568 163.067 14.1705 163.514 14.9205C163.961 15.6705 164.185 16.5909 164.185 17.6818C164.185 18.9394 163.855 20.0758 163.196 21.0909C162.545 22.1061 161.59 22.9129 160.332 23.5114C159.082 24.1098 157.563 24.4091 155.776 24.4091C154.109 24.4091 152.666 24.1402 151.446 23.6023C150.234 23.0644 149.279 22.3144 148.582 21.3523C147.893 20.3902 147.503 19.2727 147.412 18H150.321C150.397 18.8788 150.692 19.6061 151.207 20.1818C151.73 20.75 152.389 21.1742 153.185 21.4545C153.988 21.7273 154.851 21.8636 155.776 21.8636C156.851 21.8636 157.817 21.6894 158.673 21.3409C159.529 20.9848 160.207 20.4924 160.707 19.8636C161.207 19.2273 161.457 18.4848 161.457 17.6364C161.457 16.8636 161.241 16.2348 160.81 15.75C160.378 15.2652 159.81 14.8712 159.105 14.5682C158.401 14.2652 157.639 14 156.821 13.7727L153.957 12.9545C152.139 12.4318 150.7 11.6856 149.639 10.7159C148.579 9.74621 148.048 8.47727 148.048 6.90909C148.048 5.60606 148.401 4.4697 149.105 3.5C149.817 2.52273 150.772 1.76515 151.969 1.22727C153.173 0.681817 154.518 0.40909 156.003 0.40909C157.503 0.40909 158.836 0.678029 160.003 1.21591C161.17 1.74621 162.094 2.47348 162.776 3.39773C163.465 4.32197 163.829 5.37121 163.866 6.54545H161.139ZM166.818 0.727272H170.045L176.5 11.5909H176.773L183.227 0.727272H186.455L178.045 14.4091V24H175.227V14.4091L166.818 0.727272Z" fill="white"/>
</svg>
