<svg width="100" height="100" viewBox="0 0 50 50" fill="none" xmlns="http://www.w3.org/2000/svg">
<path fill-rule="evenodd" clip-rule="evenodd" d="M19.0578 44.5761C22.4573 45.719 26.189 45.4374 29.6754 44.5954C34.5602 43.4157 39.3464 41.0163 42.3097 36.9605C43.316 35.5832 44.1133 33.9503 44.027 32.2471C43.9203 30.1438 42.487 28.209 42.6952 26.1133C42.86 24.4543 44.0266 23.0593 44.4107 21.4369C44.9826 19.0209 43.5 16.2936 41.1604 15.458C39.7439 14.9521 38.1923 15.0936 36.6881 15.1062C33.8405 15.1301 30.9895 14.6631 28.2986 13.732C26.7532 13.1972 25.2646 12.5125 23.7427 11.9142C18.2708 9.76283 12.0077 8.77414 6.55254 10.9675C4.27235 11.8843 2.07705 13.5179 1.40882 15.8814C0.7808 18.1027 1.64465 20.5125 3.01164 22.3731C4.37862 24.2337 6.21221 25.6887 7.86486 27.3014C9.51752 28.914 11.0505 30.7955 11.5471 33.0498C11.8418 34.3874 11.7536 35.7833 12.0052 37.1297C12.6634 40.6528 15.6584 43.4332 19.0578 44.5761Z" fill="#64FCD9"/>
<path d="M22.3567 12.5616C22.4847 12.6364 22.5747 12.765 22.6283 12.9033C22.7796 13.2934 22.6578 13.7391 22.4584 14.107C22.259 14.4748 21.9851 14.7996 21.8019 15.1758C21.636 15.5164 21.5484 15.8949 21.5478 16.2738C21.5477 16.3257 21.4776 16.3528 21.4303 16.3316C21.383 16.3103 21.3557 16.261 21.3326 16.2146C20.8503 15.2459 20.7394 14.0409 21.2654 13.0951C21.3754 12.8975 21.5162 12.7091 21.7106 12.5935C21.905 12.4779 22.1614 12.4474 22.3567 12.5616" fill="white"/>
<path d="M17.9467 15.5584C18.1089 15.6108 18.2446 15.7241 18.3619 15.8478C18.9359 16.4532 19.1367 17.3117 19.3151 18.1266C19.3263 18.1776 19.2839 18.2591 19.2508 18.2188C18.933 17.8314 18.4754 17.5912 18.0764 17.288C17.6775 16.9848 17.309 16.5589 17.3106 16.0578C17.311 15.9047 17.3525 15.7427 17.4655 15.6394C17.5913 15.5244 17.7845 15.5059 17.9467 15.5584Z" fill="white"/>
<path fill-rule="evenodd" clip-rule="evenodd" d="M18.6078 11.7581C18.3752 12.6459 18.8015 13.5599 19.2231 14.3752C19.2644 14.455 19.3324 14.5481 19.42 14.5281C19.384 13.9925 19.5178 13.4605 19.538 12.9241C19.5582 12.3877 19.4333 11.7959 19.0077 11.4687C18.9301 11.4091 18.8114 11.4337 18.7394 11.5001C18.6674 11.5664 18.6327 11.6634 18.6078 11.7581L18.6078 11.7581Z" fill="white"/>
<path fill-rule="evenodd" clip-rule="evenodd" d="M19.057 37.5083C19.2525 37.7545 19.258 38.1059 19.1751 38.4092C19.0698 38.7945 18.8306 39.1389 18.5149 39.3828C18.4361 39.4437 20.0901 40.5463 18.7067 40.6089C17.3233 40.6715 18.0665 39.642 17.9612 39.6756C17.7648 39.7384 17.5391 39.7802 17.4194 39.9482C17.2997 40.1161 17.4482 40.433 17.6373 40.3506C17.7623 40.2961 17.8767 40.4896 17.8106 40.6089C17.7445 40.7282 17.5947 40.7687 17.4598 40.7893C17.1554 40.8357 16.829 40.8351 16.5578 40.6891C16.2866 40.5432 16.0943 40.218 16.1823 39.9229C16.2283 39.7687 16.0766 39.6135 15.9174 39.5905C15.7582 39.5675 15.6015 39.6344 15.4527 39.6954C13.6403 40.437 11.5483 40.4693 9.71399 39.7839C7.87963 39.0985 6.32135 37.7024 5.43935 35.954C5.22331 35.5258 5.04281 35.072 4.73801 34.7017C4.28152 34.147 3.55347 33.8272 2.83616 33.8664C2.59246 33.8797 2.46183 33.5393 2.57362 33.3224C2.68541 33.1054 2.92901 32.9964 3.15553 32.9055C4.0652 32.5404 5.00273 32.2081 5.97965 32.128C8.18766 31.9471 10.4291 33.1828 11.5239 35.1088C12.0062 35.9572 12.2827 36.9183 12.8369 37.7214C13.3912 38.5246 14.3636 39.1687 15.3072 38.9199C15.3908 38.8979 15.3991 38.7847 15.3959 38.6983C15.3678 37.9365 15.896 37.1879 16.623 36.9589C16.5619 37.0175 16.7921 36.9144 17.1659 36.7362C17.3132 36.666 15.7747 36.2503 14.4773 35.5501C13.1301 34.8231 13.4963 33.4575 14.1141 32.3997C14.2381 32.1874 11.4831 30.318 11.9995 29.8558C12.733 29.1993 14.9539 31.2497 15.1115 31.0978C15.2015 31.011 15.2704 30.8532 15.3072 30.8372C15.6336 30.6956 15.8918 30.3786 16.1823 30.2745C16.3883 30.2006 16.6353 30.3307 16.8241 30.2745C17.0418 30.2097 15.3385 28.7973 15.8419 28.3558C16.3454 27.9142 17.869 30.0315 18.0621 30.0094C22.4132 29.5124 20.3553 35.2737 20.4355 35.3582C20.7059 35.6432 18.684 37.0387 19.057 37.5083Z" fill="white"/>
<path fill-rule="evenodd" clip-rule="evenodd" d="M17.6833 34.4996C17.941 34.4814 18.0716 34.2577 17.975 34C17.8783 33.7423 17.591 33.5481 17.3333 33.5662C17.0756 33.5844 16.945 33.8081 17.0416 34.0658C17.1383 34.3235 17.4255 34.5177 17.6833 34.4996Z" fill="#FFB61D"/>
<path fill-rule="evenodd" clip-rule="evenodd" d="M20.7024 32.6999C20.892 32.6869 20.988 32.5276 20.9169 32.3439C20.8459 32.1603 20.6346 32.0219 20.445 32.0349C20.2554 32.0478 20.1594 32.2072 20.2305 32.3908C20.3015 32.5745 20.5128 32.7128 20.7024 32.6999Z" fill="#FFB61D"/>
<path d="M31.9208 36.034C31.6146 36.2058 31.1682 36.3818 30.9703 36.0918C30.878 35.9567 30.8969 35.7774 30.9194 35.6153C31.1121 34.2318 31.5048 32.6484 31.6975 31.2649C32.09 30.3427 33.4366 25.3392 33.9925 25C34.0508 24.9644 33.7704 24.5296 33.7412 23.7626C33.7345 23.5845 31.336 22.5639 30.7311 21.4178C30.4742 20.931 30.0718 19.4207 30.2335 18.8076C30.4467 17.9991 31.2943 18.1316 31.314 18.0917C31.355 18.0086 33.6419 18.1416 34.3622 19.1931C34.9437 20.0419 34.4806 21.9748 34.4933 21.9714C34.6641 21.926 34.6757 24.8023 34.8457 24.8343C36.9189 25.2246 38.8591 30.9233 38.9411 30.8812C39.4616 31.5006 39.982 32.1201 40.5024 32.7395C40.8318 33.1315 41.1815 33.6477 40.9691 34.1136C40.8594 34.3543 40.6217 34.5095 40.3849 34.6275C38.2864 35.6729 35.5188 34.9407 33.2441 35.5085C32.7823 35.6238 32.3359 35.801 31.9208 36.034Z" fill="white"/>
<ellipse cx="33.3647" cy="20.8679" rx="0.498528" ry="0.467845" fill="#FFB61D"/>
<path fill-rule="evenodd" clip-rule="evenodd" d="M46.1074 29.2246C45.896 29.5243 45.638 29.8056 45.3038 29.9567C44.9696 30.1078 44.5468 30.1042 44.2627 29.8722C44.0346 30.5546 43.1389 30.9159 42.5011 30.5827C42.4265 31.1412 41.976 31.6297 41.4254 31.7491C40.8748 31.8685 40.2624 31.6106 39.9631 31.1332C39.6323 30.6054 38.5316 30.9023 38.4018 30.2931C38.3321 30.642 38.0095 30.9241 37.6543 30.9465C37.2992 30.9689 36.9437 30.7297 36.8307 30.3922C36.4443 30.573 35.9653 30.382 35.6875 30.0583C35.4098 29.7346 35.2884 29.3086 35.1823 28.8955C34.3643 25.7117 34.0019 22.4172 34.0183 19.1301C33.9367 19.5293 33.3807 19.6706 33.0264 19.4694C32.6722 19.2683 32.4942 18.8586 32.3902 18.4647C32.3061 18.1462 31.8937 18.0363 31.5716 18.1056C31.2495 18.1749 30.9594 18.3607 30.634 18.4122C30.0037 18.5118 29.3684 18.0434 29.1702 17.4369C28.9719 16.8305 29.1576 16.1432 29.5421 15.6341C29.9267 15.125 30.4873 14.7742 31.0725 14.5201C31.8276 14.1921 32.6444 14.0071 33.4671 13.9776C33.6671 13.9704 33.9084 13.9482 33.9974 13.7689C34.4381 13.9729 34.9386 13.9869 35.4198 14.0525C36.5459 14.2061 37.6286 14.6663 38.5206 15.3705C39.753 16.3435 40.5925 17.7391 41.8005 18.7421C43.7943 20.3974 46.6951 20.9124 48.2372 22.9949C48.6867 23.6019 48.9905 24.3161 49.1159 25.061C49.2336 25.7601 49.1771 26.5335 48.7401 27.0917C48.3031 27.6499 47.4044 27.8714 46.8637 27.413C46.7477 28.0624 46.4876 28.6856 46.1074 29.2246" fill="white"/>
<path fill-rule="evenodd" clip-rule="evenodd" d="M34.2431 26.8326C34.3004 26.5622 34.3396 26.2701 34.2273 26.0175C34.1149 25.7649 33.7961 25.5865 33.5525 25.7173C32.7016 26.1744 32.1925 27.0729 31.7896 27.9508C31.3866 28.8287 31.0244 29.7618 30.3273 30.4305C29.7488 30.9853 28.96 31.3153 28.1587 31.3376C28.0785 31.3837 28.1402 31.5184 28.2293 31.5433C28.3184 31.5683 28.4144 31.5371 28.5056 31.5525C28.7576 31.5951 28.8116 31.9732 28.6472 32.1688C28.4828 32.3644 28.2092 32.4199 27.9574 32.4634C27.7913 32.492 27.861 32.7826 28.0269 32.8128C28.1928 32.843 28.3453 32.7286 28.4903 32.6426C28.6354 32.5567 28.8422 32.5032 28.9565 32.6271C28.7413 32.7348 28.5929 32.9649 28.5835 33.2053C28.8552 32.9213 29.2465 32.7556 29.6395 32.758C29.5344 32.8881 29.4293 33.0183 29.3241 33.1484C29.7629 33.0568 30.1266 32.6768 30.1988 32.2344C30.2664 31.8206 30.6853 31.578 31.043 31.3593C32.6638 30.3682 33.8494 28.6912 34.2431 26.8326Z" fill="white"/>
<path fill-rule="evenodd" clip-rule="evenodd" d="M24.9727 0.0449855C24.9414 0.0537054 24.8919 0.0477742 24.8968 0.0156337C24.9156 0.00601939 24.9365 -0.00387331 24.9569 0.00153305C24.9772 0.00693941 24.9905 0.036394 24.9741 0.0496407L24.9727 0.0449855Z" fill="#00160A"/>
<path fill-rule="evenodd" clip-rule="evenodd" d="M30.4985 39.924C30.4064 39.8801 30.2699 39.9925 30.3342 40.0717C30.4649 40.2328 30.5511 40.4296 30.5809 40.6348C30.7076 40.5334 30.6831 40.3375 30.6465 40.1794C30.6235 40.08 30.5906 39.9678 30.4985 39.924ZM30.921 40.7402L31.0195 40.738C31.1956 40.7348 31.3745 40.7328 31.6123 40.7311L32.5214 40.725C32.6271 40.724 32.7228 40.7228 32.8232 40.7212C32.9074 40.7199 32.9768 40.787 32.9781 40.8713C32.9794 40.9555 32.9122 41.0248 32.828 41.0261L32.4707 41.0305L31.3774 41.0381C31.1485 41.0404 30.9693 41.0435 30.7581 41.0487C30.6739 41.0508 30.604 40.9842 30.6019 40.9C30.5998 40.8158 30.6664 40.7459 30.7506 40.7438L30.8546 40.7416C30.7983 40.5185 30.7921 40.2829 30.8372 40.0573C31.0449 40.2088 31.0774 40.5417 30.921 40.7402ZM24.0688 40.3499C24.0976 40.2866 24.1324 40.2213 24.1923 40.186C24.2522 40.1508 24.3435 40.1606 24.3743 40.2229C24.1981 40.4742 24.0923 40.7743 24.0718 41.0806C24.0195 41.1132 23.9462 41.0754 23.9203 41.0195C23.8943 40.9636 23.9027 40.8984 23.9142 40.8378C23.9461 40.6698 23.9981 40.5056 24.0688 40.3499ZM13.6094 41.1839L13.6094 41.1839C14.2769 41.1481 14.8972 41.1148 15.2319 41.1095C15.2319 41.1095 16.1818 40.8613 15.4705 40.869L15.2255 40.8724C14.4431 40.8847 10.8541 41.0901 10.9269 41.2464C10.9638 41.3258 12.3683 41.2504 13.6094 41.1839ZM29.4663 40.9407C29.4641 40.8565 29.394 40.79 29.3098 40.7922C28.6463 40.8098 28.0191 40.8248 27.2384 40.8417L24.6671 40.8941C24.5829 40.8957 24.516 40.9653 24.5177 41.0495C24.5193 41.1337 24.5889 41.2007 24.6731 41.199C26.1252 41.1704 27.1079 41.1502 27.9557 41.1308L29.3179 41.0971C29.4021 41.0949 29.4685 41.0248 29.4663 40.9407ZM44.9785 40.5302C42.9796 40.3806 42.7059 40.4278 42.7059 40.4278C41.5719 40.4278 40.6127 40.454 38.8878 40.5254L37.7847 40.5722C36.7443 40.6166 36.1575 40.6396 35.5865 40.6561L35.1065 40.6687C35.0223 40.6706 34.9557 40.7405 34.9576 40.8247C34.9596 40.9089 35.0295 40.9755 35.1137 40.9735C35.7115 40.9594 36.203 40.943 37.027 40.9093L38.9578 40.8277C40.4876 40.7647 41.4094 40.7379 42.4016 40.7335L42.7732 40.7329C43.1446 40.7335 43.4886 40.7372 43.7923 40.7405C44.5936 40.749 45.1146 40.7546 45.1192 40.6937C45.1254 40.6097 45.0625 40.5365 44.9785 40.5302ZM20.9074 40.728L20.5179 41.7202C20.3096 41.3679 20.5151 40.8446 20.9074 40.728ZM21.3203 41.4879C21.308 41.4229 21.2115 41.3799 21.1744 41.4347L20.8172 41.9621C20.7422 42.0729 20.6923 42.266 20.8205 42.3043L21.2558 41.6699C21.2932 41.6153 21.3325 41.5529 21.3203 41.4879ZM18.5452 41.4255C18.5768 41.3794 18.6158 41.3297 18.6713 41.3234C18.7269 41.3171 18.7825 41.3909 18.7418 41.4292L18.5061 42.0426C18.4109 41.9779 18.3775 41.848 18.3972 41.7346C18.4169 41.6211 18.4801 41.5205 18.5452 41.4255ZM16.9579 41.6836C16.9515 41.7216 16.9663 41.7596 16.982 41.7948C17.0413 41.9277 17.1178 42.0528 17.209 42.1663C17.2952 42.0926 17.2998 41.955 17.2505 41.8529C17.2011 41.7509 17.1104 41.676 17.0224 41.6045C16.9893 41.6175 16.9639 41.6486 16.9579 41.6836ZM19.3539 42.067C19.415 42.1891 19.3967 42.3466 19.3093 42.4514C19.2014 42.3175 19.142 42.1454 19.1443 41.9735C19.1449 41.9234 19.1565 41.8645 19.202 41.8434C19.2964 41.7996 19.3491 41.9554 19.3368 42.0588L19.3539 42.067ZM20.0402 41.2001C20.0569 41.1473 20.0767 41.0903 20.1232 41.0602C20.1696 41.03 20.2491 41.0503 20.2534 41.1055C20.2066 41.309 20.1609 41.5128 20.1163 41.7168C20.0639 41.7663 19.9696 41.7221 19.9447 41.6545C19.9198 41.5868 19.9415 41.5119 19.9633 41.4432L20.0402 41.2001Z" fill="#00160A"/>
<path fill-rule="evenodd" clip-rule="evenodd" d="M11.5431 29.7653L11.7668 29.9602L11.4831 30.1202C12.0485 30.2195 12.5305 30.5893 12.9253 31.006C13.5643 31.6806 14.0386 32.5102 14.2957 33.4031C14.4563 32.8521 14.1539 32.2782 13.82 31.8115C13.3186 31.1105 12.7195 30.4795 12.0456 29.9422C12.9399 29.727 13.7697 30.4306 14.4216 31.0795C14.5392 31.1965 14.6667 31.3447 14.6309 31.5067C14.6248 31.5344 14.6147 31.5639 14.6046 31.5936C14.5748 31.6808 14.5445 31.7694 14.6134 31.8162C15.0556 31.3145 15.6201 30.9215 16.2441 30.6808C15.9232 30.6734 15.6007 30.7721 15.339 30.9579C15.727 30.5101 16.3279 30.2554 16.9196 30.2878C16.742 29.7367 16.4491 29.2229 16.0652 28.7894C16.2871 28.637 16.5788 28.8325 16.7663 29.0258C17.0952 29.3649 17.3963 29.731 17.6654 30.1193C19.0598 30.0933 20.4149 31.0648 20.8379 32.3937C20.9991 32.3234 20.9595 32.0841 20.8817 31.9264C20.3321 30.812 19.1851 30.0154 17.949 29.8896C17.6734 29.8616 17.5235 29.6166 17.3699 29.3655C17.2378 29.1496 17.1028 28.9291 16.8828 28.838C16.4067 28.6408 15.9785 28.329 15.6448 27.9364C15.6272 28.0979 15.7064 28.2662 15.8419 28.3557L15.3594 28.2533C15.3997 28.3656 15.4917 28.4583 15.6038 28.4996L15.3337 28.5916C15.9371 28.8274 16.4115 29.3695 16.5652 29.9989L15.4668 30.5962C15.6516 30.3424 15.8719 30.1144 16.1191 29.9208C15.7711 29.9226 15.5075 30.2221 15.2931 30.4962C15.371 30.257 15.4617 30.022 15.5647 29.7926C15.1551 30.1592 14.9078 30.701 14.899 31.2506C14.0153 30.3018 12.8858 29.584 11.6516 29.1867C11.864 29.3313 12.0744 29.4788 12.2826 29.6293C12.0442 29.5248 11.7806 29.4785 11.5208 29.4955L12.0256 29.7524L11.5431 29.7653ZM17.5648 36.9169L19.2209 36.0063C19.5236 35.8398 19.8832 35.6697 20.1991 35.8094C19.8416 36.2709 19.4192 36.6821 18.9482 37.0271C18.9433 37.1873 19.2047 37.1276 19.3179 37.014L20.7108 35.6171C20.5944 35.5722 20.46 35.5762 20.3466 35.628L20.1829 35.3901C19.2921 35.7365 18.4336 36.1659 17.6222 36.6709C17.3246 36.8562 16.9369 36.7101 16.6302 36.5403C15.8484 36.1075 15.1455 35.5325 14.5664 34.8519C14.1461 34.358 13.7738 33.7279 13.9122 33.0944L13.914 33.0861C13.9551 32.8981 14.0093 32.6503 13.8388 32.565C13.5999 33.0263 13.6275 33.593 13.8188 34.0759C14.0101 34.5588 14.3498 34.9688 14.72 35.3332C15.5529 36.1533 16.5693 36.7861 17.6729 37.1714C17.7737 37.2066 17.9293 37.2082 17.9407 37.1021C17.8265 37.0206 17.699 36.9578 17.5648 36.9169ZM19.1857 31.6083C19.2505 31.601 19.321 31.6017 19.3748 31.6386C19.4287 31.6755 19.4531 31.7602 19.4082 31.8076C19.195 32.0321 19.2612 32.4539 19.5329 32.6024C19.5116 32.4865 19.5506 32.3523 19.6523 32.2928C19.7541 32.2333 19.9132 32.2877 19.9312 32.4042C19.7645 32.4288 19.6506 32.6308 19.7157 32.7862C19.7737 32.9244 19.7223 33.0999 19.5989 33.1851C19.4756 33.2702 19.2933 33.2561 19.1846 33.1529C19.1439 33.1143 19.1084 33.0636 19.0733 33.0136C18.998 32.9061 18.9247 32.8015 18.8068 32.8254C18.7904 32.8288 18.7736 32.8347 18.7568 32.8406C18.7158 32.855 18.6751 32.8694 18.642 32.8455C18.6095 32.8221 18.6076 32.7753 18.6087 32.7352C18.6105 32.675 18.6134 32.6113 18.6466 32.5611C18.6798 32.5108 18.755 32.4834 18.8019 32.5212C18.8184 32.5345 18.8288 32.5532 18.8391 32.572C18.8431 32.5792 18.8471 32.5864 18.8514 32.5933C18.9331 32.7234 19.1651 32.7047 19.2249 32.5632C19.1869 32.3392 18.9182 32.1871 18.7066 32.2698C18.6121 32.3068 18.5079 32.2065 18.5068 32.1051C18.5056 32.0036 18.5742 31.9147 18.6499 31.8472C18.7983 31.715 18.9882 31.6303 19.1857 31.6083ZM19.555 32.7454C19.4707 32.7439 19.3792 32.7447 19.312 32.7958C19.2449 32.847 19.2297 32.969 19.3044 33.0083C19.3318 33.0226 19.3643 33.0228 19.3951 33.0201C19.465 33.0139 19.5384 32.9917 19.5824 32.937C19.6265 32.8823 19.6257 32.7889 19.5667 32.7508L19.555 32.7454ZM23.7041 32.7189C23.9222 32.4874 24.3489 32.5093 24.5421 32.7618C24.6217 32.866 24.813 32.8076 24.8506 32.6819C24.8882 32.5563 24.8012 32.419 24.6836 32.3611C24.5659 32.3032 24.4275 32.3081 24.2979 32.3281C24.2216 32.3398 24.1428 32.3557 24.0633 32.3717C23.7298 32.4389 23.3823 32.509 23.1431 32.2911C22.8903 32.0609 22.5236 31.9905 22.1836 32.0266C21.8437 32.0627 21.5219 32.1932 21.2053 32.3224L20.4651 32.6243C20.227 32.7215 19.9663 32.84 19.8663 33.077C19.7663 33.3139 19.985 33.6607 20.2236 33.5648C21.1302 33.2006 22.203 33.5343 22.9435 34.1717C23.684 34.8091 24.1506 35.703 24.5455 36.5967C24.6024 36.7254 24.8064 36.7154 24.9006 36.6108C24.9947 36.5062 25.009 36.3544 25.0186 36.214L25.1313 34.5764C25.1465 34.355 25.1602 34.1239 25.0735 33.9196C24.978 33.6944 24.7754 33.5359 24.5809 33.3876L23.7041 32.7189ZM22.9921 33.9598C22.1794 33.3137 21.0494 33.0069 20.0716 33.3558C19.9962 33.0921 20.3062 32.8933 20.5619 32.7943L21.4957 32.4328C21.7637 32.3291 22.0396 32.2239 22.327 32.2253C22.8782 32.2281 23.3136 32.6013 23.7464 32.9722C23.8927 33.0976 24.0387 33.2228 24.1888 33.3333C24.2309 33.3643 24.274 33.3947 24.3174 33.4251C24.5216 33.5689 24.7289 33.7148 24.8395 33.935C24.9487 34.1523 24.9445 34.4071 24.9346 34.6502C24.9102 35.2431 24.8655 35.8353 24.8006 36.4252C24.7938 36.4871 24.7327 36.5694 24.6916 36.5225C24.3357 35.5473 23.8048 34.6058 22.9921 33.9598ZM16.4928 31.1879C16.6035 31.1836 16.7339 31.1986 16.7904 31.2939C16.8167 31.3383 16.8208 31.395 16.8011 31.4427C16.5186 31.2826 16.1053 31.467 16.0356 31.7841C15.895 31.6931 15.9103 31.4644 16.0284 31.3456C16.1464 31.2268 16.3255 31.1945 16.4928 31.1879ZM18.3201 30.2297C18.1086 30.4426 18.1084 30.8281 18.3198 31.0412C18.3971 31.1191 18.3726 31.2609 18.2906 31.3337C18.2086 31.4066 18.0892 31.422 17.9803 31.4088C17.7599 31.3822 17.573 31.2594 17.3847 31.1357C17.2581 31.0525 17.1308 30.9688 16.9922 30.9137C16.5572 30.7405 16.0425 30.873 15.6736 31.1613C15.3047 31.4496 15.0631 31.8721 14.8908 32.3074C14.7525 32.6569 14.6527 33.0455 14.7597 33.4058C14.9037 33.8909 15.3742 34.1921 15.8097 34.4499C15.4306 34.4245 15.1057 34.8687 15.2447 35.2222C15.3008 35.365 15.4119 35.4784 15.5242 35.5829C15.8333 35.8705 16.1745 36.1237 16.5394 36.3361C16.6078 36.3759 16.746 36.3412 16.6943 36.2812L15.5685 35.4209C15.309 35.2226 15.465 34.7641 15.7638 34.6322C16.0625 34.5003 16.4075 34.5874 16.7218 34.6761L15.6514 34.0537C15.4138 33.9155 15.1645 33.7656 15.0339 33.5237C14.8357 33.1563 14.9719 32.7035 15.133 32.3184C15.2741 31.9814 15.437 31.6441 15.696 31.3864C15.9549 31.1286 16.3281 30.9605 16.6868 31.0298C16.9096 31.0729 17.1029 31.1997 17.2943 31.3252L17.2943 31.3252C17.3336 31.3509 17.3728 31.3766 17.4122 31.4015C17.6433 31.5479 17.9144 31.6748 18.1819 31.6178C18.4494 31.5607 18.6639 31.2361 18.5183 31.0045C18.374 30.7752 18.3036 30.5001 18.3201 30.2297ZM17.5292 31.9869C17.6071 32.0406 17.6926 32.1072 17.6988 32.2015C17.7009 32.2339 17.6916 32.2685 17.6671 32.2899C17.6369 32.3162 17.5926 32.3162 17.5525 32.3148C17.4336 32.3106 17.3068 32.3038 17.2104 32.2339C17.1141 32.164 17.0728 32.0063 17.1608 31.9262C17.2606 31.8353 17.4181 31.9103 17.5292 31.9869ZM4.98133 34.6011C4.47898 34.0035 3.71689 33.6324 2.9367 33.6054C2.77907 33.6 2.87833 33.3459 3.01416 33.2657C4.31011 32.5008 5.87001 32.1645 7.35427 32.4126C8.83852 32.6606 10.2291 33.51 11.0589 34.7654C11.3691 35.2347 11.5986 35.7496 11.8281 36.2643L11.8281 36.2643L11.8281 36.2644L11.8282 36.2644L11.8282 36.2645L11.8282 36.2646L11.8282 36.2646L11.8283 36.2647L11.8283 36.2647L11.8283 36.2648L11.8283 36.2648L11.8284 36.2649L11.8284 36.2649L11.8284 36.265L11.8284 36.265L11.8285 36.2651C11.9036 36.4337 11.9788 36.6024 12.0568 36.7694C12.373 37.4462 12.7507 38.1162 13.3227 38.5968C13.8946 39.0774 14.6971 39.3399 15.4067 39.1062C15.4591 39.089 15.5138 39.0669 15.5461 39.0222C15.5868 38.9659 15.5813 38.8909 15.5761 38.8207L15.5749 38.804C15.5237 38.0737 16.0944 37.4653 16.623 36.9589C15.8959 37.1879 15.3678 37.9365 15.3959 38.6983C15.3991 38.7847 15.3908 38.8979 15.3072 38.9199C14.3636 39.1687 13.3912 38.5246 12.8369 37.7214C12.5175 37.2586 12.2904 36.7434 12.063 36.2275L12.063 36.2275C11.8957 35.848 11.7283 35.4683 11.5239 35.1088C10.4291 33.1828 8.18766 31.9471 5.97965 32.128C5.00273 32.2081 4.0652 32.5404 3.15553 32.9054C2.92901 32.9963 2.68541 33.1054 2.57362 33.3223C2.46183 33.5393 2.59246 33.8797 2.83616 33.8664C3.55347 33.8272 4.28152 34.147 4.73801 34.7017C4.97415 34.9886 5.13568 35.3256 5.29694 35.662L5.29694 35.662L5.29694 35.662L5.29695 35.662L5.29695 35.662L5.29696 35.662L5.29696 35.662L5.29697 35.662L5.29697 35.6621L5.29697 35.6621L5.29698 35.6621L5.29698 35.6621L5.29699 35.6621L5.29699 35.6621L5.297 35.6621C5.34386 35.7599 5.39071 35.8576 5.43935 35.954C6.32135 37.7024 7.87964 39.0985 9.71399 39.7839C11.5483 40.4693 13.6403 40.437 15.4527 39.6953L15.4659 39.6899L15.4659 39.6899C15.6108 39.6305 15.7629 39.5682 15.9174 39.5905C16.0766 39.6134 16.2283 39.7687 16.1823 39.9229C16.0943 40.218 16.2866 40.5432 16.5578 40.6891C16.829 40.8351 17.1554 40.8357 17.4598 40.7893C17.5947 40.7687 17.7445 40.7282 17.8106 40.6089C17.8767 40.4896 17.7623 40.296 17.6373 40.3505C17.4482 40.433 17.2997 40.1161 17.4194 39.9482C17.5202 39.8067 17.6961 39.7547 17.8665 39.7043L17.8665 39.7043L17.8665 39.7043L17.8665 39.7043L17.8665 39.7043L17.8665 39.7043L17.8665 39.7043L17.8665 39.7043L17.8666 39.7043C17.8985 39.6949 17.9302 39.6855 17.9612 39.6756C18.5419 39.4901 19.0144 38.9972 19.1751 38.4092C19.258 38.1059 19.2525 37.7545 19.057 37.5083C18.684 37.0387 17.8479 37.2865 17.5788 37.8224C17.3096 38.3583 17.4476 39.0055 17.6535 39.5688L17.1849 39.6159C17.2626 39.8767 17.2294 40.1686 17.0953 40.4054L17.4634 40.5453C17.0607 40.802 16.4348 40.5155 16.366 40.043C16.3586 39.9922 16.3563 39.9397 16.354 39.8873C16.3486 39.766 16.3433 39.6451 16.2751 39.548C16.1195 39.3269 15.7814 39.396 15.5243 39.48C14.4682 39.8248 13.3606 40.0117 12.2497 40.0326C11.6778 40.0433 11.0997 40.0094 10.5492 39.8536C9.99714 39.6973 9.48689 39.4227 8.98566 39.1435C7.94607 38.5643 6.88481 37.9198 6.24248 36.918C6.04176 36.6049 5.8869 36.2638 5.73235 35.9233C5.52054 35.4566 5.3093 34.9912 4.98133 34.6011ZM18.1034 37.5263C18.4056 37.3528 18.8605 37.4497 18.9939 37.7716C19.0727 37.9617 19.0307 38.1799 18.9619 38.3739C18.8162 38.785 18.5533 39.1539 18.2122 39.4258C18.0981 39.5167 17.8869 39.5711 17.8425 39.4322C17.7363 39.1004 17.629 38.7606 17.6395 38.4124C17.65 38.0641 17.8013 37.6997 18.1034 37.5263ZM19.5985 37.4231L19.794 37.4978C19.7308 37.587 19.6635 37.6798 19.5651 37.7274C19.4667 37.775 19.328 37.7584 19.2749 37.6628L19.5918 37.4454L19.5985 37.4231ZM20.385 37.2104C20.2902 37.2082 20.1902 37.2044 20.1097 37.1544C19.9612 37.0621 19.9396 36.8585 19.9338 36.6838C19.7688 36.7537 19.7192 36.9853 19.8035 37.1433C19.8879 37.3014 20.0671 37.389 20.2442 37.4156C20.3822 37.4364 20.522 37.4265 20.6616 37.4166C20.7013 37.4138 20.7409 37.411 20.7805 37.4089C21.0652 37.3938 21.355 37.4146 21.6438 37.4353C22.191 37.4746 22.7349 37.5137 23.2341 37.3076C23.6086 37.153 23.9158 36.8742 24.2148 36.6008C24.2656 36.5543 24.3202 36.5002 24.3229 36.4314C24.3257 36.3626 24.2371 36.2967 24.1872 36.3441C23.7996 36.7125 23.3846 37.0959 22.8626 37.2118C22.629 37.2636 22.387 37.2582 22.1478 37.2525L20.385 37.2104ZM19.5617 30.8661C19.653 30.8347 19.7201 30.9844 19.6569 31.0574C19.5937 31.1304 19.4779 31.1266 19.3874 31.0931C19.3371 31.0746 19.2874 31.0469 19.2589 31.0016C19.2155 30.9326 19.2384 30.8305 19.3071 30.7867C19.3757 30.7428 19.478 30.765 19.5223 30.8333L19.5617 30.8661ZM21.9108 34.8616L21.8105 34.7038C21.2863 35.1423 20.9109 35.7558 20.7591 36.4221C20.7356 36.5253 20.7263 36.6542 20.8122 36.7159C20.9163 36.644 20.9499 36.5095 20.9809 36.3857L20.9849 36.3694C21.1309 35.7884 21.4587 35.2545 21.9108 34.8616ZM18.5511 30.5877C18.4736 30.532 18.5 30.3868 18.5922 30.362C18.6844 30.3372 18.7801 30.4495 18.7411 30.5366C18.7059 30.6152 18.6063 30.6366 18.5209 30.6479L18.5511 30.5877ZM18.7169 39.6796C18.6657 39.5723 18.4973 39.5203 18.4278 39.6168C18.5261 39.6475 18.518 39.7582 18.5094 39.8743C18.5015 39.9823 18.4932 40.0951 18.5702 40.1523C18.587 40.1649 18.6065 40.173 18.626 40.1811C18.6461 40.1894 18.6661 40.1978 18.6833 40.2109C18.7171 40.2368 18.7302 40.2984 18.6919 40.3171C18.489 40.4343 18.1901 40.3097 18.1306 40.083C18.1263 40.0665 18.1229 40.0494 18.1196 40.0323C18.1093 39.9804 18.099 39.9283 18.0623 39.8919C18.0135 39.8436 17.9001 39.8787 17.9222 39.9437C17.9402 40.1436 17.9759 40.3732 18.1476 40.4771C18.281 40.5579 18.4503 40.5322 18.6036 40.5038L19.2451 40.3851C19.1948 40.154 18.9441 39.9866 18.7115 40.0287C18.7403 39.9133 18.7682 39.7868 18.7169 39.6796ZM21.2673 36.7392C21.4284 36.184 21.759 35.6793 22.2034 35.3096C22.2325 35.2854 22.2642 35.2608 22.3017 35.2557C22.3495 35.2492 22.3998 35.2801 22.4156 35.3256C22.0682 35.6596 21.7831 36.0581 21.5792 36.4946C21.5173 36.6271 21.4041 36.7908 21.2673 36.7392ZM19.8735 35.3309L20.2085 33.6747C20.0951 33.666 20.0236 33.7918 19.9856 33.899C19.8042 34.4114 19.7143 34.956 19.7215 35.4995C19.8038 35.5224 19.8565 35.4147 19.8735 35.3309ZM22.0069 36.7368C21.9004 36.6586 21.9685 36.4903 22.0496 36.386C22.3064 36.0557 22.6222 35.7712 22.9775 35.5501C23.0552 35.5787 23.0082 35.6964 22.9508 35.756L22.0069 36.7368ZM23.1599 36.4426C23.114 36.3241 22.935 36.385 22.8352 36.4638L22.4569 36.7622C22.4676 36.8103 22.4944 36.8547 22.5321 36.8866C22.7719 36.7898 22.9887 36.6365 23.1599 36.4426ZM22.1288 32.86C22.0495 32.8192 21.9384 32.8906 21.9427 32.9797C21.947 33.0687 22.0644 33.1292 22.1394 33.0809C22.2144 33.0327 22.208 32.9008 22.1288 32.86ZM22.4465 32.8276C22.5405 32.7808 22.6 32.6727 22.5892 32.5683L22.6003 32.5652C22.5315 32.5177 22.4243 32.5414 22.382 32.6136C22.3397 32.6857 22.3714 32.7908 22.4465 32.8276ZM24.3939 34.1523C24.3684 34.1931 24.3403 34.2325 24.31 34.2699C24.2913 34.2929 24.2685 34.3169 24.239 34.3186C24.2033 34.3207 24.1753 34.29 24.153 34.262C24.0754 34.1645 23.9957 34.0628 23.9661 33.9417C23.9365 33.8206 23.9719 33.6741 24.0804 33.6129C24.0883 33.6921 24.1671 33.7142 24.2508 33.7377C24.309 33.754 24.3697 33.771 24.4105 33.8083C24.5027 33.8926 24.4601 34.0463 24.3939 34.1523ZM21.6077 32.6426C21.664 32.5623 21.8086 32.575 21.85 32.6638C21.8914 32.7527 21.8081 32.8716 21.7104 32.863C21.6128 32.8544 21.5515 32.7229 21.6077 32.6426Z" fill="#00160A"/>
<path fill-rule="evenodd" clip-rule="evenodd" d="M34.4386 32.161C34.6473 32.1379 34.8433 32.3007 34.9172 32.4972C34.991 32.6937 34.9666 32.9135 34.9164 33.1174C34.8587 33.3522 34.7682 33.5789 34.6485 33.7889C34.5923 33.8874 34.5131 33.9926 34.3999 33.9995C34.2448 34.009 34.1493 33.8349 34.106 33.6857C34.0351 33.4407 33.9968 33.1862 33.9925 32.9312C33.9898 32.7679 34.002 32.5999 34.0712 32.452C34.1404 32.3041 34.2763 32.1789 34.4386 32.161Z" fill="#FFB61D"/>
<path fill-rule="evenodd" clip-rule="evenodd" d="M23.8605 11.5832C23.7733 11.7461 23.6704 11.9549 23.787 12.0983C23.9983 11.9021 24.2081 11.7041 24.4073 11.4958C24.6735 11.2175 24.9244 10.9151 25.0742 10.5603C25.2239 10.2055 25.2629 9.78939 25.1061 9.43763C25.0219 9.24869 24.8135 9.06626 24.6279 9.15756C24.5106 9.21526 24.4637 9.35557 24.4324 9.48247C24.3808 9.69079 24.3398 9.90297 24.2989 10.1151C24.2008 10.6228 24.1028 11.1302 23.8605 11.5832ZM24.8867 10.4866C24.7375 10.8379 24.4834 11.1325 24.2334 11.4209C24.1958 11.4643 24.1483 11.5117 24.0913 11.5048C24.2945 11.0671 24.4342 10.5999 24.5047 10.1224C24.5094 10.091 24.5137 10.0594 24.5181 10.0278C24.5487 9.8076 24.5799 9.58351 24.6972 9.39672C24.7229 9.35573 24.7655 9.31234 24.8119 9.32613C24.8389 9.33413 24.8565 9.35934 24.8709 9.3835C25.0659 9.71161 25.036 10.1353 24.8867 10.4866ZM19.751 12.8172C19.7391 12.3731 19.5903 11.9336 19.3298 11.5738C19.216 11.4166 19.0516 11.262 18.8583 11.2799C18.6366 11.3005 18.502 11.5339 18.4398 11.7478C18.2835 12.2847 18.3438 12.8674 18.5214 13.3977C18.6991 13.928 18.9885 14.4133 19.2942 14.8815C19.3455 14.9601 19.4513 15.0461 19.5174 14.9795C19.5424 14.9543 19.5476 14.9161 19.5515 14.8808L19.7122 13.4206C19.7342 13.2201 19.7563 13.0188 19.751 12.8172ZM19.2238 14.4418C18.8022 13.6265 18.3759 12.7126 18.6085 11.8247C18.6334 11.73 18.6681 11.6331 18.7401 11.5667C18.8121 11.5004 18.9308 11.4757 19.0084 11.5354C19.434 11.8625 19.5589 12.4543 19.5387 12.9907C19.5306 13.206 19.5042 13.4207 19.4778 13.6351C19.4385 13.9548 19.3992 14.2742 19.4207 14.5947C19.3331 14.6148 19.2651 14.5216 19.2238 14.4418ZM22.6285 12.97C22.5749 12.8317 22.4849 12.7031 22.3568 12.6282C22.1615 12.514 21.9052 12.5446 21.7108 12.6602C21.5163 12.7758 21.3755 12.9641 21.2656 13.1618C20.7396 14.1075 20.8505 15.3125 21.3328 16.2813C21.3559 16.3277 21.3831 16.377 21.4304 16.3982C21.4777 16.4195 21.5479 16.3923 21.548 16.3405C21.5486 15.9616 21.6361 15.5831 21.802 15.2424C21.9024 15.0364 22.0299 14.8458 22.1576 14.655L22.1576 14.655L22.1576 14.655C22.2629 14.4975 22.3684 14.34 22.4586 14.1736C22.6579 13.8058 22.7797 13.3601 22.6285 12.97ZM21.4132 13.3027C21.5516 13.016 21.8129 12.7152 22.1253 12.7765C22.3446 12.8195 22.4955 13.0411 22.518 13.2635C22.5406 13.4858 22.4599 13.7058 22.3588 13.9051C22.2597 14.1005 22.1402 14.2844 22.0207 14.4683L22.0207 14.4683C21.9062 14.6445 21.7917 14.8207 21.695 15.0071C21.545 15.2964 21.4394 15.6088 21.383 15.9298C21.0086 15.1066 21.0199 14.1172 21.4132 13.3027ZM17.4655 15.7061C17.5913 15.591 17.7845 15.5726 17.9467 15.625C18.1089 15.6775 18.2446 15.7907 18.3619 15.9144C18.9359 16.5198 19.1367 17.3783 19.3151 18.1933C19.3263 18.2442 19.2838 18.3258 19.2508 18.2854C19.0277 18.0135 18.7357 17.814 18.4435 17.6145L18.4435 17.6145L18.4434 17.6144C18.3194 17.5297 18.1953 17.445 18.0764 17.3546C17.6774 17.0514 17.309 16.6256 17.3106 16.1245C17.311 15.9714 17.3525 15.8094 17.4655 15.7061ZM17.5912 15.8698C17.5123 15.9472 17.4999 16.07 17.5113 16.1799C17.5565 16.6171 17.8883 16.9682 18.2358 17.2373C18.4715 17.4198 18.723 17.5818 18.9865 17.7209C18.9023 17.088 18.6132 16.484 18.173 16.0215C18.0185 15.8592 17.7513 15.713 17.5912 15.8698Z" fill="#FFB61D"/>
<path fill-rule="evenodd" clip-rule="evenodd" d="M36.7842 32.6305C36.9352 32.6619 37.0159 32.8259 37.0555 32.9749C37.1815 33.4501 37.1067 33.9751 36.853 34.3961C36.8387 34.4199 36.8229 34.4443 36.7988 34.4583C36.7162 34.5065 36.6281 34.4039 36.5909 34.3157C36.436 33.9487 36.3647 33.5468 36.3839 33.1489C36.3899 33.0244 36.4062 32.8957 36.4714 32.7894C36.5365 32.6832 36.6622 32.6052 36.7842 32.6305L36.7842 32.6305Z" fill="#FFB61D"/>
<path fill-rule="evenodd" clip-rule="evenodd" d="M38.7334 32.3501C38.8909 32.6898 38.9361 33.0805 38.8603 33.4472C38.8352 33.5684 38.7797 33.7049 38.66 33.7365C38.491 33.7812 38.3616 33.5896 38.2942 33.4282C38.1567 33.0986 38.0289 32.7346 38.1279 32.3914C38.1737 32.2328 38.3057 32.0695 38.4691 32.0932C38.5961 32.1116 38.6794 32.2338 38.7334 32.3501L38.7334 32.3501Z" fill="#FFB61D"/>
<path fill-rule="evenodd" clip-rule="evenodd" d="M34.6783 29.066C34.7386 29.5015 34.6801 29.9528 34.5107 30.3585C34.4664 30.4645 34.3934 30.5823 34.2786 30.5871C34.1305 30.5932 34.0528 30.4131 34.0352 30.2659C33.9903 29.8901 34.0646 29.5009 34.2446 29.1679C34.2917 29.0809 34.3519 28.9924 34.4443 28.9568C34.5367 28.9212 34.6648 28.9679 34.6783 29.066V29.066Z" fill="#FFB61D"/>
<path fill-rule="evenodd" clip-rule="evenodd" d="M32.8115 33.8798C32.912 34.2892 32.7165 34.7533 32.3535 34.9674C32.2806 35.0103 32.1811 34.9727 32.1303 34.9051C32.0795 34.8375 32.0666 34.7491 32.062 34.6646C32.0448 34.3522 32.1194 34.0353 32.2739 33.7633C32.3199 33.6823 32.3809 33.5994 32.4713 33.5769C32.6355 33.536 32.7711 33.7155 32.8115 33.8798L32.8115 33.8798Z" fill="#FFB61D"/>
<path fill-rule="evenodd" clip-rule="evenodd" d="M32.4331 31.963C32.3218 31.6872 32.3178 31.3696 32.4223 31.091C32.4562 31.0005 32.508 30.9075 32.5971 30.87C32.7811 30.7925 32.9619 30.9985 33.0174 31.1903C33.092 31.4486 33.0735 31.7327 32.9661 31.9792C32.9175 32.0907 32.8314 32.2067 32.7099 32.2106C32.5778 32.2148 32.4825 32.0855 32.4331 31.963H32.4331Z" fill="#FFB61D"/>
<path fill-rule="evenodd" clip-rule="evenodd" d="M36.2085 31.4564C36.2447 31.5453 36.279 31.6388 36.2713 31.7345C36.2636 31.8301 36.2021 31.928 36.1081 31.9472C35.9779 31.9737 35.8699 31.848 35.8057 31.7317C35.7186 31.5743 35.6508 31.4062 35.604 31.2325C35.5761 31.1289 35.5564 31.0155 35.5985 30.9169C35.6407 30.8182 35.7677 30.7499 35.8596 30.8054C35.9014 30.8307 35.9274 30.875 35.9511 30.9178C36.0473 31.0921 36.1333 31.272 36.2085 31.4564H36.2085Z" fill="#FFB61D"/>
<path fill-rule="evenodd" clip-rule="evenodd" d="M46.1074 29.2246C45.896 29.5243 45.638 29.8056 45.3038 29.9567C44.9696 30.1078 44.5468 30.1042 44.2628 29.8722C44.0346 30.5546 43.1389 30.9159 42.5011 30.5827C42.4266 31.1412 41.9761 31.6297 41.4254 31.7491C40.8748 31.8685 40.2624 31.6106 39.9632 31.1332C39.8074 30.8847 39.4811 30.819 39.1658 30.7555C38.8112 30.6841 38.4705 30.6155 38.4018 30.2931C38.3322 30.642 38.0095 30.9241 37.6544 30.9465C37.2992 30.9689 36.9437 30.7297 36.8307 30.3922C36.4444 30.573 35.9653 30.382 35.6876 30.0583C35.4098 29.7346 35.2884 29.3086 35.1823 28.8955C34.3644 25.7117 34.0019 22.4172 34.0183 19.1301C33.9367 19.5293 33.3807 19.6706 33.0265 19.4694C32.6722 19.2683 32.4942 18.8586 32.3902 18.4647C32.3061 18.1462 31.8937 18.0363 31.5716 18.1056C31.4217 18.1379 31.2786 18.1954 31.1358 18.2528C30.9717 18.3188 30.8079 18.3846 30.634 18.4121C30.0038 18.5118 29.3685 18.0434 29.1702 17.4369C28.9719 16.8305 29.1576 16.1432 29.5422 15.6341C29.9267 15.1249 30.4873 14.7742 31.0725 14.5201C31.8276 14.1921 32.6444 14.0071 33.4671 13.9776C33.6671 13.9704 33.9084 13.9482 33.9974 13.7689C34.3435 13.9291 34.7264 13.9721 35.1079 14.015L35.1079 14.015C35.2122 14.0267 35.3165 14.0384 35.4199 14.0525C36.5459 14.2061 37.6286 14.6663 38.5206 15.3705C39.158 15.8737 39.6902 16.4899 40.2227 17.1064L40.2227 17.1064C40.7199 17.682 41.2173 18.2578 41.8006 18.7421C42.6279 19.4291 43.6116 19.9196 44.5895 20.4073C45.968 21.0948 47.3351 21.7766 48.2372 22.9949C48.6867 23.6019 48.9905 24.3161 49.1159 25.061C49.2337 25.7601 49.1771 26.5335 48.7401 27.0917C48.3031 27.6499 47.4044 27.8714 46.8637 27.413C46.7478 28.0624 46.4876 28.6856 46.1074 29.2246ZM33.5861 15.2732C33.873 14.9874 34.0682 14.6109 34.1364 14.2117C33.4948 14.0656 32.8255 14.2136 32.1905 14.3865C31.4816 14.5796 30.763 14.8139 30.1914 15.2756C29.6198 15.7372 29.2184 16.4742 29.3432 17.1983C29.3933 17.4888 29.6023 17.8111 29.8954 17.7785L29.748 17.9641C29.7735 18.0222 29.8375 18.061 29.9009 18.0568C30.1721 18.0192 30.4136 17.8161 30.4969 17.5552C30.5088 17.5182 30.5179 17.4797 30.527 17.4412L30.527 17.4412L30.527 17.4412L30.5271 17.4412C30.5493 17.3473 30.5716 17.2536 30.6331 17.1812C30.7199 17.0793 30.9304 17.0819 30.9505 17.2143C30.9636 17.3 30.8925 17.3777 30.826 17.4503C30.7509 17.5324 30.6818 17.608 30.7469 17.6813C31.0384 17.4882 31.323 17.2845 31.5998 17.0708C31.772 16.9378 31.9599 16.7243 31.8585 16.5319C31.7885 16.399 31.8833 16.2104 32.0317 16.1873C32.1801 16.1642 32.3277 16.3151 32.3014 16.4629C32.4609 16.3538 32.624 16.2412 32.734 16.0823C32.844 15.9235 32.8907 15.7058 32.7996 15.5355C32.7277 15.4008 32.8069 15.2096 32.9531 15.1654C33.0992 15.1212 33.2711 15.2364 33.2859 15.3884C33.3933 15.3197 33.3517 15.1534 33.2855 15.0444C33.2194 14.9353 33.1389 14.8001 33.2054 14.6913C33.3027 14.5318 33.5473 14.6482 33.6846 14.7749C33.7187 14.6402 33.6967 14.4922 33.6247 14.3734C33.6214 14.2486 33.8147 14.1977 33.9031 14.2859C33.9914 14.3741 33.9805 14.5246 33.9216 14.6346C33.883 14.7069 33.8283 14.7681 33.7736 14.8295L33.7736 14.8295L33.7736 14.8295L33.7736 14.8295C33.7449 14.8617 33.7162 14.8939 33.6897 14.9277C33.6128 15.026 33.5531 15.1528 33.5861 15.2732ZM44.1787 28.1647C44.5012 28.1823 44.5636 28.6355 44.4944 28.951C44.4252 29.2666 44.3683 29.6859 44.6571 29.8305C44.8288 29.9166 45.0368 29.8444 45.2036 29.7492C45.9894 29.3006 46.4053 28.4045 46.6388 27.5304C46.6661 27.4284 46.6804 27.2956 46.5907 27.2399C45.6449 26.6519 44.9767 25.6365 44.8107 24.5352C45.04 24.5794 45.1234 24.8556 45.1873 25.0803C45.4234 25.9096 46.0013 26.636 46.7565 27.0523C46.8582 25.3903 46.2853 23.6968 45.1956 22.4378C45.55 22.5054 45.7963 22.823 45.9829 23.1317C46.7057 24.327 47.0499 25.7475 46.9544 27.1411C47.2141 27.5163 47.7951 27.558 48.1819 27.3158C48.5688 27.0737 48.782 26.6247 48.8713 26.1771C49.1068 24.9965 48.5951 23.7621 47.7905 22.8666C46.9859 21.9711 45.9178 21.3603 44.8486 20.807C44.7046 20.7325 44.5601 20.6586 44.4154 20.5847C43.4858 20.1096 42.5523 19.6325 41.7448 18.9743C41.1364 18.4783 40.6134 17.8907 40.0904 17.3029C39.5873 16.7377 39.0841 16.1723 38.5048 15.6883C37.4815 14.8334 36.2117 14.2477 34.8817 14.1508C34.6589 14.1346 34.4014 14.1466 34.2614 14.3208C34.1215 14.4949 34.2869 14.841 34.4918 14.7522L33.6913 15.358C33.882 15.3911 34.0033 15.6316 33.9165 15.8047C33.8298 15.9777 33.5645 16.0244 33.4239 15.8914C33.5856 15.8538 33.7252 15.7314 33.7836 15.5759C33.35 15.7073 32.9706 16.009 32.7449 16.4018C32.9241 16.3738 33.1134 16.5062 33.1486 16.6841C33.0182 16.7139 32.8759 16.732 32.7329 16.7501L32.7328 16.7501C32.3034 16.8046 31.8676 16.8599 31.7284 17.2369C31.9178 17.2413 32.098 17.3717 32.1614 17.5502C31.7541 17.4502 31.3055 17.5337 30.9616 17.7736C31.1582 17.8675 31.3852 17.8728 31.6098 17.8781H31.6098C31.8814 17.8845 32.1497 17.8909 32.357 18.0536C32.5432 18.1999 32.6214 18.4279 32.7001 18.6573C32.7356 18.7609 32.7713 18.8648 32.817 18.9616C32.9639 19.2723 33.4031 19.5237 33.6298 19.2653C33.667 19.2228 33.6939 19.1701 33.7204 19.118C33.7632 19.0342 33.8051 18.9518 33.8887 18.9158C34.1273 18.8129 34.2731 19.183 34.272 19.4429C34.2586 22.6231 34.6312 25.8047 35.379 28.8958C35.4629 29.2426 35.5572 29.6 35.7804 29.8784C36.0036 30.1567 36.3922 30.3348 36.7253 30.207C36.3595 29.6933 36.2648 28.9972 36.4803 28.4045C36.4761 28.9425 36.6003 29.481 36.8397 29.9628L36.7079 28.4962C37.029 28.7262 37.017 29.1623 37.005 29.5953C36.9928 30.0373 36.9807 30.476 37.3232 30.6889C37.6601 30.8983 38.179 30.6057 38.1714 30.209C38.1677 30.0142 38.0638 29.835 37.9615 29.6587C37.8378 29.4454 37.7165 29.2362 37.778 29.0086L38.3226 29.8188L38.1829 28.4177C38.4471 28.7544 38.5558 29.2081 38.473 29.6279C38.4096 29.9493 38.5442 30.3015 38.8058 30.4988C39.0674 30.696 39.4431 30.7285 39.7347 30.5791C39.3965 29.9868 39.2254 29.3003 39.246 28.6186L39.9594 30.5591C40.3234 30.1135 40.4457 29.4816 40.2742 28.9324C40.7165 29.4472 40.5659 30.3506 39.9806 30.6941C40.1152 31.1205 40.5024 31.4562 40.9435 31.5291C41.3847 31.6019 41.8593 31.4084 42.1238 31.048C42.2947 30.8151 42.3684 30.4672 42.1806 30.2478C41.5053 29.4584 41.2008 28.3644 41.3714 27.3396C41.543 28.2862 41.7293 29.2683 42.2943 30.0469L41.9571 28.7077C42.2525 28.8609 42.3132 29.208 42.3746 29.5591C42.4328 29.8919 42.4916 30.2283 42.7513 30.407C43.1958 30.7129 43.7865 30.2726 44.0523 29.803C43.4286 28.5021 42.8768 27.1668 42.4001 25.8052C42.9041 26.3097 43.1276 26.999 43.3518 27.6904C43.5605 28.3337 43.7697 28.9789 44.206 29.4788C44.3343 29.0523 44.3246 28.5855 44.1787 28.1647ZM31.0728 18.0281C30.794 17.928 30.4651 17.9824 30.2334 18.167C30.5151 18.2484 30.8324 18.1959 31.0728 18.0281ZM33.0861 15.3717C33.0169 15.3265 32.9077 15.3817 32.9031 15.4643C32.8985 15.5468 33.001 15.6138 33.0748 15.5765C33.1485 15.5392 33.1553 15.4169 33.0861 15.3717ZM32.0529 16.5921C32.1288 16.5699 32.1745 16.4759 32.145 16.4025C32.1075 16.3716 32.0453 16.401 32.0285 16.4466C32.0116 16.4921 32.0271 16.5431 32.0479 16.587L32.0529 16.5921ZM34.149 14.8986C34.2016 14.8822 34.2284 14.8115 34.2 14.7643C34.1378 14.7401 34.1172 14.8492 34.1474 14.9087L34.149 14.8986ZM32.6568 23.1C32.0091 22.8928 31.4588 22.3991 31.1827 21.7775C31.1287 21.6559 30.9777 21.598 30.8372 21.5442C30.6706 21.4804 30.5188 21.4222 30.5609 21.2701C30.6679 20.8838 30.5577 20.4834 30.4496 20.0908L30.4496 20.0908C30.4278 20.0114 30.406 19.9324 30.3862 19.8538C30.268 19.3866 30.2446 18.8205 30.6019 18.4972C30.4637 19.0244 30.485 19.5924 30.6624 20.1078C30.6737 20.1406 30.6855 20.1741 30.6975 20.2079L30.6975 20.208L30.6975 20.208L30.6975 20.208L30.6975 20.208L30.6975 20.208C30.8223 20.5613 30.9646 20.964 30.7238 21.234C30.7563 21.3876 30.9758 21.4309 31.1087 21.3473C31.2416 21.2637 31.3061 21.1073 31.3626 20.9608C31.2308 21.8309 31.8905 22.7442 32.7579 22.8926C33.2816 22.9822 33.7509 23.3449 33.9696 23.8292C34.1883 24.3134 34.1501 24.9053 33.871 25.3574C34.206 25.5025 34.4162 25.8563 34.4733 26.2169C34.5305 26.5775 34.4564 26.9459 34.3566 27.2971C33.8367 29.1264 32.5791 30.7345 30.9291 31.6802C30.6359 31.8482 30.4775 32.1668 30.3205 32.4827C30.1489 32.8278 29.979 33.1696 29.6365 33.308C29.4284 33.392 29.1089 33.3004 29.1234 33.0764C28.9814 33.1901 28.8208 33.3082 28.6392 33.2992C28.4575 33.2901 28.2889 33.0739 28.3937 32.9253C28.1566 33.0277 27.8303 33.1081 27.6817 32.8968C27.5326 32.6848 27.7304 32.3923 27.9573 32.267C28.0233 32.2305 28.0936 32.1991 28.1639 32.1678C28.3351 32.0913 28.5061 32.0151 28.6132 31.8657C28.3949 31.8442 28.1548 31.812 28.0093 31.6478C27.8638 31.4835 27.926 31.149 28.1451 31.1375C28.8835 31.0987 29.6049 30.7912 30.1442 30.2853C30.7616 29.7061 31.1131 28.9186 31.4614 28.1385L31.4614 28.1385L31.4614 28.1385L31.4614 28.1385L31.4614 28.1385L31.4614 28.1385C31.538 27.9669 31.6144 27.7957 31.6934 27.6272C32.132 26.6922 32.7569 25.7376 33.7402 25.4217C33.8201 25.052 33.9004 24.6751 33.8645 24.2985C33.8286 23.922 33.6571 23.5388 33.3351 23.3404C33.1866 23.249 33.0176 23.2023 32.8486 23.1557C32.7843 23.1379 32.72 23.1202 32.6568 23.1ZM31.0433 31.3593C32.6641 30.3682 33.8497 28.6912 34.2434 26.8327C34.3007 26.5622 34.3399 26.2701 34.2275 26.0175C34.1152 25.7649 33.7964 25.5865 33.5528 25.7173C32.7019 26.1744 32.1928 27.0729 31.7898 27.9508C31.7389 28.0617 31.6887 28.1735 31.6383 28.2855L31.6383 28.2856L31.6382 28.2857C31.29 29.0604 30.9366 29.8464 30.3276 30.4305C29.7491 30.9853 28.9603 31.3153 28.159 31.3376C28.0788 31.3837 28.1405 31.5184 28.2296 31.5433C28.2782 31.557 28.329 31.5539 28.3798 31.5508C28.4221 31.5482 28.4645 31.5456 28.5059 31.5526C28.7579 31.5951 28.8119 31.9732 28.6475 32.1688C28.483 32.3644 28.2095 32.4199 27.9577 32.4634C27.7915 32.4921 27.8612 32.7826 28.0271 32.8128C28.1706 32.839 28.3041 32.7569 28.4313 32.6787L28.4315 32.6786L28.4315 32.6786L28.4315 32.6785L28.4316 32.6785C28.4514 32.6663 28.4711 32.6542 28.4906 32.6427C28.6357 32.5567 28.8425 32.5032 28.9568 32.6271C28.7416 32.7348 28.5932 32.9649 28.5838 33.2054C28.8555 32.9213 29.2468 32.7556 29.6398 32.758L29.3244 33.1484C29.7632 33.0568 30.1268 32.6768 30.1991 32.2345C30.2644 31.8346 30.6576 31.5947 31.0068 31.3816L31.0433 31.3593ZM32.1207 35.834C31.8146 36.0058 31.3681 36.1818 31.1702 35.8918C31.0779 35.7566 31.0968 35.5774 31.1194 35.4153L31.6975 31.2649C31.8159 32.455 31.7088 33.6672 31.3838 34.8181C31.2844 35.1698 31.1712 35.5717 31.3686 35.8791C32.2511 35.3848 33.2338 35.0702 34.2394 34.9602C34.9633 34.881 35.701 34.9055 36.4365 34.93C37.6205 34.9694 38.7984 35.0085 39.9026 34.6142C40.1708 34.5184 40.4406 34.3899 40.6159 34.1655C40.7911 33.941 40.8426 33.5985 40.6667 33.3745L38.973 31.2172C38.893 31.1153 38.8258 30.9403 38.9411 30.8812L40.5024 32.7395C40.8317 33.1315 41.1815 33.6476 40.9691 34.1135C40.8593 34.3543 40.6217 34.5095 40.3848 34.6275C39.1922 35.2216 37.848 35.177 36.4922 35.132H36.4922C35.4624 35.0978 34.426 35.0634 33.444 35.3085C32.9822 35.4238 32.5359 35.601 32.1207 35.834ZM34.167 40.2608L34.0846 40.4473C34.1813 40.6491 34.4537 40.6761 34.6773 40.6665C35.15 40.6461 35.6211 40.5879 36.0845 40.4926C36.4744 40.4124 36.9177 40.2527 37.0362 39.8727C37.1059 39.6494 37.0403 39.4128 36.977 39.1845C36.9692 39.1563 36.9614 39.1283 36.9539 39.1004C36.8006 38.5292 36.7705 37.9252 36.8663 37.3415C36.9052 37.1045 36.9646 36.8696 37.0239 36.635C37.1361 36.1917 37.2479 35.7497 37.2203 35.2965C36.6305 36.5692 36.475 38.0385 36.7855 39.4064L36.789 39.4219C36.8223 39.5683 36.8574 39.7225 36.8086 39.8638C36.7291 40.0934 36.4664 40.1956 36.2314 40.2574C35.7905 40.3733 35.2541 40.4212 34.9424 40.0886C34.9208 40.0655 34.9004 40.0403 34.8905 40.0103C34.8476 39.8806 35.0073 39.7852 35.1287 39.7225C35.5924 39.4833 35.8506 38.9558 35.9036 38.4368C35.9565 37.9178 35.8364 37.3984 35.7153 36.8909L35.7146 36.8881C35.5937 36.3815 35.4703 35.8646 35.5153 35.3459C35.523 35.2577 35.3772 35.2324 35.3211 35.3009C35.2649 35.3693 35.276 35.4689 35.2901 35.5563L35.7227 38.2351C35.7751 38.5596 35.6438 38.8931 35.4372 39.1487C35.2305 39.4043 34.9544 39.5935 34.6761 39.7684C34.534 39.8576 34.3813 39.9469 34.2136 39.9501C34.0458 39.9533 33.8638 39.8364 33.8569 39.6687C34.3391 39.5365 34.6626 39.0582 34.7603 38.5678C34.858 38.0774 34.7724 37.5712 34.6867 37.0786L34.4453 35.69C34.4106 35.4904 34.2987 35.2334 34.1 35.2724C34.3577 36.1265 34.5167 37.0104 34.5727 37.9008C34.5953 38.2588 34.5958 38.6399 34.4117 38.9478C34.2432 39.2297 33.9464 39.4059 33.6584 39.5636C33.53 39.6339 33.3958 39.7074 33.3138 39.8286C33.2318 39.9499 33.2227 40.1344 33.3346 40.2287C33.4461 40.3227 33.5985 40.2851 33.7516 40.2474C33.9023 40.2102 34.0536 40.1729 34.167 40.2608ZM34.9152 40.3098C35.0074 40.341 35.0986 40.3718 35.1181 40.4605C34.8837 40.4907 34.6454 40.49 34.4113 40.4583C34.3043 40.4438 34.2671 40.2923 34.3226 40.1997C34.3781 40.1071 34.4858 40.062 34.5863 40.0227C34.6436 40.1166 34.7055 40.2149 34.803 40.2657C34.8371 40.2834 34.8763 40.2966 34.9152 40.3098ZM33.5455 39.9033C33.6251 39.8486 33.7439 39.8618 33.8096 39.9325L33.8286 39.9161C33.8584 39.9584 33.8563 40.0204 33.8237 40.0606C33.7015 40.0393 33.5704 40.0772 33.4783 40.1604C33.4358 40.0738 33.466 39.958 33.5455 39.9033ZM31.8944 19.719C31.6581 19.5641 31.4264 19.6377 31.2378 19.9108C31.2064 19.9562 31.2178 20.0185 31.2632 20.0499C31.3087 20.0813 31.371 20.0699 31.4024 20.0244C31.5342 19.8335 31.6488 19.7971 31.7848 19.8862C31.831 19.9165 31.893 19.9036 31.9232 19.8574C31.9535 19.8112 31.9406 19.7493 31.8944 19.719ZM31.0449 19.0265C30.9603 18.9886 31.0175 18.8571 31.0935 18.8041C31.2405 18.7017 31.4203 18.6604 31.5952 18.6212C31.8015 18.575 32.0492 18.5401 32.1966 18.6916C31.8485 18.81 31.4976 18.9201 31.1443 19.0218C31.1118 19.0312 31.0759 19.0403 31.0449 19.0265ZM32.6446 21.066C32.6836 21.0145 32.7187 20.9783 32.7626 20.9506C32.8595 20.8896 32.9792 20.8941 33.0687 20.9755C33.3969 21.274 33.2924 21.7099 32.9406 22.0418C32.6141 22.35 32.1725 22.486 31.887 22.2751C31.6685 22.1137 31.701 21.8925 31.9045 21.7623L31.9102 21.7587C31.9663 21.7246 32.1461 21.6342 32.1438 21.6355L32.163 21.6251C32.2188 21.5941 32.2595 21.5663 32.289 21.5385C32.3344 21.4958 32.3785 21.4454 32.4236 21.3861C32.4581 21.3407 32.5357 21.2254 32.5861 21.1505C32.6092 21.1162 32.6265 21.0904 32.6315 21.0837L32.6446 21.066ZM32.0059 22.1142C32.407 22.4106 33.422 21.5672 32.9341 21.1235C32.8766 21.0712 32.8124 21.1688 32.7189 21.3109C32.6439 21.4248 32.5502 21.5673 32.4261 21.6841C32.3466 21.759 32.2377 21.8133 32.143 21.8606C31.9781 21.9428 31.8561 22.0036 32.0059 22.1142Z" fill="#00160A"/>
</svg>
