<svg width="34" height="42" viewBox="0 0 34 42" fill="none" xmlns="http://www.w3.org/2000/svg">
<path fill-rule="evenodd" clip-rule="evenodd" d="M29.1669 24.1321C28.8331 24.6002 28.4258 25.0394 27.8983 25.2754C27.3706 25.5111 26.7033 25.5056 26.255 25.1433C25.895 26.209 24.481 26.773 23.4743 26.2528C23.3567 27.1247 22.6456 27.8876 21.7762 28.0739C20.9072 28.2605 19.9405 27.8577 19.4682 27.1124C19.2223 26.7243 18.7071 26.6216 18.2093 26.5225C17.6497 26.4109 17.1119 26.3039 17.0034 25.8006C16.8936 26.3454 16.3843 26.7858 15.8237 26.8207C15.2631 26.8557 14.7019 26.4823 14.5236 25.9554C13.9139 26.2376 13.1574 25.9392 12.7192 25.434C12.2806 24.9285 12.0891 24.2633 11.9214 23.6184C10.6304 18.6472 10.0582 13.5033 10.0842 8.37087C9.95529 8.99416 9.0778 9.21479 8.51846 8.90064C7.95943 8.58666 7.6785 7.94695 7.51427 7.33191C7.38131 6.83462 6.73063 6.66302 6.22197 6.77125C5.98547 6.82167 5.7596 6.91146 5.53405 7.00108C5.27503 7.10413 5.01662 7.20686 4.74196 7.24979C3.74716 7.40548 2.74454 6.67411 2.43139 5.72713C2.11856 4.78034 2.41168 3.70717 3.01857 2.91229C3.62546 2.11723 4.51047 1.56965 5.43426 1.17291C6.62614 0.660775 7.91532 0.371923 9.2142 0.32586C9.52985 0.314617 9.91056 0.279956 10.051 0C10.5975 0.250134 11.2019 0.317274 11.8041 0.384257C11.9687 0.402525 12.1332 0.420789 12.2965 0.442806C14.074 0.682633 15.783 1.40118 17.1911 2.50071C18.1971 3.28639 19.0371 4.24853 19.8777 5.21111C20.6626 6.10983 21.4478 7.00887 22.3684 7.76504C23.6745 8.8377 25.2271 9.60359 26.7709 10.3651C28.9466 11.4385 31.1045 12.5031 32.5286 14.4053C33.2381 15.353 33.7176 16.4682 33.9157 17.6313C34.1015 18.7228 34.0123 19.9304 33.3225 20.8019C32.6327 21.6735 31.214 22.0194 30.3606 21.3036C30.1776 22.3176 29.7669 23.2906 29.1669 24.1321ZM9.40189 2.34879C9.85487 1.90254 10.163 1.31468 10.2706 0.69138C9.25768 0.463263 8.20125 0.694347 7.19894 0.964307C6.07994 1.26581 4.94561 1.63164 4.04341 2.35253C3.1412 3.07326 2.50741 4.22399 2.70449 5.3546C2.78364 5.80817 3.11336 6.31139 3.57604 6.26051L3.3436 6.55029C3.38365 6.64101 3.4847 6.70161 3.5848 6.69503C4.01307 6.63634 4.3941 6.31922 4.52548 5.91186C4.54457 5.85409 4.55865 5.79397 4.57304 5.73383C4.60807 5.58723 4.64342 5.44094 4.74071 5.32789C4.87773 5.16878 5.20996 5.17283 5.24156 5.37959C5.2622 5.5134 5.15021 5.63469 5.0451 5.74805C4.92654 5.87626 4.81735 5.99427 4.92028 6.10872C5.38045 5.80725 5.82968 5.48917 6.26671 5.15552C6.53824 4.94784 6.8348 4.61448 6.67495 4.31409C6.56452 4.10658 6.71405 3.81212 6.94836 3.77604C7.18267 3.73998 7.41541 3.9756 7.37412 4.20635C7.62564 4.03603 7.88341 3.86019 8.05704 3.61211C8.23066 3.36415 8.30417 3.02423 8.16058 2.75834C8.04702 2.548 8.17184 2.24948 8.40271 2.18046C8.63326 2.11145 8.90481 2.29133 8.92796 2.52865C9.09751 2.42139 9.03181 2.16173 8.92733 1.99154C8.82315 1.8212 8.69615 1.61009 8.80094 1.44022C8.95454 1.19118 9.34058 1.37292 9.55737 1.57075C9.61118 1.36043 9.57645 1.12935 9.46289 0.943854C9.45758 0.748994 9.7629 0.669522 9.90242 0.807232C10.0416 0.944946 10.0244 1.17993 9.93152 1.35169C9.87052 1.46457 9.78417 1.56013 9.69783 1.656C9.65247 1.70627 9.60742 1.75655 9.5655 1.80932C9.44413 1.96281 9.34996 2.16079 9.40189 2.34879ZM26.1224 22.4773C26.6314 22.5048 26.7299 23.2124 26.6207 23.705C26.5113 24.1977 26.4215 24.8524 26.8776 25.0782C27.1485 25.2127 27.477 25.0999 27.7401 24.9512C28.9804 24.251 29.6371 22.8517 30.0056 21.4869C30.0487 21.3277 30.0713 21.1203 29.9296 21.0334C28.4367 20.1152 27.3819 18.5298 27.12 16.8103C27.482 16.8793 27.6137 17.3105 27.7144 17.6614C28.087 18.9562 28.9992 20.0904 30.1914 20.7404C30.3519 18.1454 29.4475 15.5012 27.7275 13.5355C28.2869 13.641 28.6757 14.1369 28.9701 14.6189C30.111 16.4852 30.6544 18.7031 30.5036 20.8791C30.9137 21.4649 31.8306 21.53 32.4413 21.1518C33.0519 20.7738 33.3885 20.0728 33.5296 19.3739C33.9013 17.5305 33.0935 15.6032 31.8234 14.205C30.5533 12.8067 28.8675 11.8531 27.1798 10.9891C26.9523 10.8728 26.7243 10.7574 26.4959 10.642C25.0284 9.90024 23.555 9.15532 22.2805 8.12759C21.3201 7.35317 20.4946 6.43569 19.669 5.5179C18.8747 4.63543 18.0804 3.75261 17.166 2.99692C15.5509 1.66209 13.5463 0.747589 11.4469 0.596289C11.0953 0.570994 10.6889 0.589733 10.468 0.861727C10.2472 1.13356 10.5081 1.67396 10.8315 1.53531L9.568 2.48119C9.86895 2.53287 10.0604 2.90839 9.92339 3.17867C9.78668 3.44878 9.36779 3.52169 9.146 3.31404C9.40127 3.25532 9.6215 3.0642 9.71379 2.82142C9.02931 3.02657 8.43024 3.49764 8.07424 4.11094C8.35704 4.06724 8.65579 4.27396 8.71147 4.55174C8.50563 4.59826 8.28102 4.62653 8.05515 4.65478C7.37725 4.73989 6.68933 4.82621 6.46941 5.41486C6.76848 5.42173 7.05284 5.62534 7.15295 5.90403C6.51008 5.74793 5.80184 5.87829 5.25907 6.25284C5.5694 6.39949 5.92791 6.40773 6.28234 6.416C6.71092 6.42603 7.13449 6.43601 7.46171 6.69002C7.75577 6.91848 7.87904 7.27447 8.00323 7.63266C8.05954 7.79442 8.11585 7.95662 8.1878 8.10778C8.41992 8.5929 9.11315 8.98541 9.47103 8.58195C9.52953 8.51562 9.57207 8.4333 9.61399 8.35198C9.68156 8.22112 9.74757 8.09247 9.87959 8.03624C10.2562 7.87558 10.4865 8.45346 10.4846 8.85927C10.4633 13.8248 11.0518 18.7924 12.2321 23.6188C12.3644 24.1603 12.5133 24.7184 12.8656 25.1529C13.2178 25.5875 13.8313 25.8657 14.3571 25.6661C13.7797 24.8639 13.6301 23.7772 13.9705 22.8517C13.9639 23.6917 14.1597 24.5325 14.5376 25.2848L14.3296 22.9949C14.8364 23.354 14.8176 24.0349 14.7985 24.7111C14.7795 25.4012 14.7604 26.086 15.301 26.4184C15.8328 26.7455 16.6518 26.2887 16.6399 25.6693C16.6339 25.3651 16.47 25.0852 16.3086 24.8099C16.1131 24.4771 15.9216 24.1502 16.0189 23.7949L16.8786 25.0599L16.658 22.8723C17.075 23.3981 17.2465 24.1063 17.116 24.762C17.0159 25.2638 17.2283 25.8136 17.6412 26.1217C18.0542 26.4295 18.6473 26.4804 19.1075 26.247C18.5735 25.3224 18.3035 24.2505 18.336 23.186L19.4622 26.2159C20.0366 25.5201 20.2296 24.5335 19.959 23.676C20.6572 24.4797 20.4195 25.8903 19.4957 26.4266C19.7081 27.0924 20.3194 27.6166 21.0154 27.7304C21.7121 27.8442 22.461 27.5419 22.8787 26.9793C23.1483 26.6156 23.2647 26.0723 22.9684 25.7298C21.9023 24.4973 21.4218 22.7891 21.6908 21.189C21.9618 22.667 22.2558 24.2004 23.1477 25.4162L22.6156 23.3251C23.0817 23.5643 23.1777 24.1063 23.2744 24.6545C23.3664 25.1742 23.4593 25.6994 23.8691 25.9783C24.5708 26.456 25.5033 25.7686 25.9228 25.0353C24.9383 23.0041 24.0671 20.9192 23.3147 18.7933C24.1103 19.5809 24.4631 20.6572 24.817 21.7367C25.1464 22.7412 25.4767 23.7486 26.1653 24.5291C26.368 23.8632 26.3526 23.1343 26.1224 22.4773ZM5.43457 6.65022C4.99473 6.49393 4.47543 6.57887 4.10973 6.86709C4.55426 6.99419 5.05511 6.91223 5.43457 6.65022ZM8.61262 2.50257C8.50345 2.43202 8.33107 2.51819 8.32388 2.64717C8.31668 2.77598 8.47842 2.88059 8.59479 2.82236C8.71116 2.76412 8.7218 2.57315 8.61262 2.50257ZM6.98183 4.4081C7.10165 4.37344 7.1736 4.22664 7.12699 4.11205C7.06787 4.0638 6.96964 4.10971 6.94336 4.18089C6.91645 4.25195 6.94116 4.33157 6.97401 4.40012L6.98183 4.4081ZM10.2903 1.76389C10.3736 1.73828 10.4158 1.6279 10.371 1.5542C10.2728 1.51641 10.2403 1.68676 10.2878 1.77966L10.2903 1.76389ZM7.93503 14.5694C6.91269 14.2459 6.04397 13.475 5.60819 12.5045C5.52279 12.3146 5.28441 12.2242 5.06292 12.1402C4.79983 12.0406 4.56021 11.9497 4.62653 11.7122C4.79546 11.1091 4.62152 10.4839 4.45103 9.87088C4.41662 9.74691 4.3822 9.62357 4.35092 9.50085C4.16416 8.77134 4.12725 7.88744 4.69128 7.38268C4.47324 8.20583 4.50671 9.0927 4.78701 9.89742C4.80484 9.94866 4.8233 10.001 4.84238 10.0537C5.03915 10.6054 5.26376 11.2343 4.88367 11.6559C4.93498 11.8957 5.28159 11.9633 5.4915 11.8328C5.7011 11.7022 5.80308 11.458 5.89224 11.2293C5.68421 12.5879 6.72531 14.0139 8.09457 14.2456C8.92139 14.3854 9.66217 14.9518 10.0072 15.7079C10.3526 16.464 10.2922 17.3882 9.85175 18.094C10.3804 18.3206 10.7123 18.873 10.8024 19.4361C10.8925 19.9991 10.7758 20.5743 10.6182 21.1227C9.79762 23.9789 7.8124 26.4898 5.20777 27.9664C4.74509 28.2286 4.49514 28.7262 4.24706 29.2193C3.97615 29.7581 3.70806 30.2917 3.16748 30.5079C2.83901 30.6391 2.33473 30.4961 2.35757 30.1464C2.13327 30.3238 1.87987 30.5082 1.59331 30.4942C1.30645 30.48 1.04023 30.1425 1.20572 29.9104C0.831575 30.0702 0.316337 30.1958 0.0817137 29.8658C-0.153535 29.5348 0.158677 29.0781 0.516868 28.8826C0.621041 28.8255 0.732094 28.7765 0.842836 28.7276C1.11312 28.6083 1.3831 28.4892 1.55234 28.2559C1.2076 28.2224 0.828759 28.172 0.598828 27.9158C0.36921 27.6593 0.467441 27.137 0.813432 27.1189C1.97873 27.0584 3.11775 26.5782 3.96896 25.7883C4.94343 24.8839 5.49839 23.6544 6.04803 22.4364C6.1691 22.1684 6.28954 21.9012 6.41436 21.6381C7.10665 20.1782 8.09301 18.6877 9.64528 18.1944C9.77135 17.6172 9.89805 17.0287 9.84143 16.4407C9.7848 15.8528 9.51389 15.2545 9.00585 14.9447C8.77123 14.802 8.50438 14.7291 8.23785 14.6564C8.13618 14.6286 8.03482 14.6009 7.93503 14.5694ZM5.38796 27.4653C7.9466 25.9178 9.81796 23.2994 10.4396 20.3975C10.53 19.9752 10.5919 19.5191 10.4142 19.1247C10.2372 18.7303 9.7338 18.4518 9.34933 18.656C8.00635 19.3697 7.20269 20.7726 6.56639 22.1433C6.48599 22.3165 6.40685 22.491 6.32739 22.6659C5.77775 23.8755 5.21966 25.1031 4.25833 26.0152C3.34517 26.8812 2.10011 27.3966 0.835332 27.4313C0.708636 27.5033 0.805922 27.7138 0.946696 27.7526C1.02334 27.774 1.10374 27.7692 1.18382 27.7644C1.25045 27.7603 1.3174 27.7562 1.38279 27.767C1.78071 27.8336 1.8658 28.4239 1.60646 28.7293C1.34681 29.0347 0.915097 29.1212 0.517489 29.1892C0.255024 29.234 0.365142 29.6877 0.626982 29.7347C0.853472 29.7756 1.06432 29.6474 1.26516 29.5254C1.29644 29.5064 1.32803 29.4871 1.35869 29.4693C1.58768 29.3348 1.91428 29.2514 2.09448 29.4447C1.75474 29.6129 1.52074 29.9723 1.50572 30.3476C1.93461 29.9041 2.55246 29.6455 3.1728 29.6491L2.67477 30.2587C3.36738 30.1158 3.94142 29.5223 4.05561 28.8317C4.15853 28.2074 4.77919 27.8329 5.3304 27.5002L5.38796 27.4653ZM7.08882 34.4521C6.6055 34.7201 5.90069 34.9952 5.58849 34.5422C5.44271 34.3311 5.47242 34.0512 5.5084 33.7982L6.42093 27.318C6.60769 29.1762 6.43844 31.0688 5.92571 32.8658C5.76867 33.4149 5.59004 34.0423 5.90162 34.5225C7.29466 33.7507 8.84568 33.2594 10.4333 33.0876C11.5758 32.9639 12.7401 33.0022 13.9013 33.0406C15.7702 33.102 17.6293 33.163 19.3724 32.5474C19.7957 32.3979 20.2218 32.1972 20.4983 31.8469C20.7749 31.4962 20.8562 30.9616 20.5787 30.6118L17.9053 27.2435C17.7789 27.0844 17.6728 26.8111 17.8549 26.7188L20.3194 29.6204C20.839 30.2324 21.3911 31.0382 21.0561 31.7657C20.8825 32.1417 20.5077 32.384 20.1336 32.5681C18.2513 33.4959 16.1293 33.4262 13.9892 33.3558C12.3638 33.3026 10.7277 33.2488 9.1776 33.6314C8.4487 33.8114 7.7442 34.0881 7.08882 34.4521ZM10.3188 41.364L10.1887 41.6552C10.3413 41.9702 10.7715 42.0124 11.1243 41.9974C11.8704 41.9654 12.614 41.8747 13.3458 41.7258C13.9611 41.6007 14.6609 41.3512 14.848 40.758C14.9578 40.4092 14.8542 40.0397 14.7544 39.6832C14.7422 39.6396 14.7297 39.5957 14.7181 39.5521C14.476 38.66 14.4285 37.717 14.5796 36.8056C14.6412 36.4359 14.7347 36.069 14.8286 35.7029C15.0056 35.0106 15.1821 34.3205 15.1386 33.6128C14.2076 35.6002 13.962 37.8942 14.4522 40.0298L14.4576 40.0542C14.5101 40.2824 14.5658 40.5237 14.4885 40.7443C14.3631 41.1024 13.9486 41.262 13.5776 41.3587C12.8815 41.5397 12.035 41.6142 11.5429 41.095C11.5088 41.0591 11.4766 41.0195 11.4609 40.9728C11.3931 40.7703 11.6452 40.6213 11.837 40.5237C12.569 40.1498 12.9763 39.3264 13.0601 38.5161C13.1437 37.7057 12.9541 36.8946 12.763 36.1023L12.7617 36.0977C12.5709 35.3068 12.376 34.4998 12.4473 33.6899C12.4592 33.5521 12.2293 33.5128 12.1407 33.6195C12.0519 33.7263 12.0694 33.8818 12.0916 34.0185L12.7745 38.2008C12.8571 38.7077 12.65 39.2283 12.3237 39.6275C11.9975 40.0267 11.5617 40.3219 11.1225 40.5953C10.8982 40.7344 10.6573 40.8737 10.3923 40.8788C10.1277 40.8841 9.84017 40.7011 9.82953 40.4396C10.5906 40.233 11.1012 39.4863 11.2554 38.7205C11.4096 37.9549 11.2745 37.1643 11.139 36.3951L10.7583 34.2272C10.7033 33.9155 10.5268 33.5142 10.2131 33.5752C10.6197 34.9086 10.871 36.2886 10.9592 37.6789C10.9948 38.2379 10.9958 38.833 10.7051 39.3137C10.4392 39.7538 9.97062 40.0291 9.51608 40.2754C9.31337 40.3853 9.10157 40.4998 8.97206 40.6891C8.84255 40.8788 8.82816 41.1666 9.00491 41.3138C9.18104 41.4606 9.42161 41.4018 9.66311 41.343C9.90118 41.2849 10.1399 41.2266 10.3188 41.364ZM11.4997 41.4406C11.6455 41.4893 11.7894 41.5373 11.8201 41.6756C11.4503 41.7229 11.074 41.7219 10.7045 41.6725C10.5356 41.6494 10.4768 41.4129 10.5644 41.2688C10.652 41.1239 10.8222 41.0533 10.9808 40.9923C11.0712 41.1388 11.1688 41.2924 11.3227 41.3717C11.3765 41.3992 11.4384 41.4197 11.4997 41.4406ZM9.33776 40.8055C9.46352 40.7201 9.65091 40.7409 9.75477 40.8515L9.7848 40.8257C9.83173 40.8918 9.82828 40.9884 9.77698 41.0513C9.58396 41.0181 9.37718 41.0774 9.23172 41.2073C9.16477 41.0721 9.21232 40.891 9.33776 40.8055ZM6.73157 9.29035C6.35868 9.04851 5.99297 9.16344 5.69515 9.58982C5.64573 9.66074 5.66357 9.758 5.7352 9.80703C5.80715 9.85605 5.90538 9.83826 5.95481 9.76721C6.16316 9.46916 6.34397 9.41229 6.55857 9.55142C6.63146 9.59874 6.72938 9.57859 6.77693 9.50645C6.82479 9.43433 6.80446 9.33767 6.73157 9.29035ZM5.39077 8.20911C5.25719 8.14994 5.34729 7.94462 5.46741 7.86187C5.69954 7.70198 5.98327 7.6375 6.25919 7.5763C6.58485 7.50416 6.97589 7.44966 7.20864 7.6862C6.65899 7.87107 6.10528 8.04299 5.5475 8.20178C5.4962 8.21646 5.43957 8.23064 5.39077 8.20911ZM7.91564 11.3935C7.97726 11.3131 8.03263 11.2566 8.10208 11.2134C8.25505 11.1181 8.444 11.1251 8.58509 11.2522C9.10314 11.7183 8.93828 12.3989 8.383 12.9171C7.86777 13.3984 7.17047 13.6107 6.71999 13.2814C6.37494 13.0294 6.42625 12.684 6.74752 12.4807L6.75659 12.4751C6.84512 12.4218 7.12886 12.2807 7.12511 12.2828L7.15545 12.2665C7.24367 12.2181 7.3078 12.1747 7.35442 12.1313C7.42605 12.0646 7.49581 11.9859 7.56682 11.8933C7.62126 11.8224 7.74389 11.6424 7.82335 11.5255C7.85995 11.4719 7.88717 11.4316 7.89499 11.4212L7.91564 11.3935ZM6.90769 13.0302C7.54086 13.493 9.14287 12.1761 8.37268 11.4833C8.28196 11.4017 8.1806 11.554 8.03295 11.7759C7.9147 11.9537 7.76672 12.1763 7.57089 12.3586C7.44545 12.4756 7.27339 12.5603 7.12386 12.6342C6.86358 12.7625 6.67119 12.8575 6.90769 13.0302Z" fill="white"/>
</svg>
